<svg width="161" height="149" viewBox="0 0 161 149" fill="none" xmlns="http://www.w3.org/2000/svg">
<rect width="161" height="149" rx="24" fill="#91D24D"/>
<mask id="path-2-inside-1_1_67" fill="white">
<path d="M29.5191 27.5333C29.5191 42.0667 29.9191 46.3333 31.5191 47.6667C33.5191 49.2667 38.8524 48.3333 38.8524 46.3333C38.8524 45.6667 37.9191 45.4 36.8524 45.8C35.1191 46.4667 34.8524 45 34.8524 36.4667V26.3333H42.8524V37.6667C42.8524 48.0667 43.1191 49 45.5191 49C47.9191 49 48.1857 48.0667 48.1857 38.3333C48.1857 28.6 48.4524 27.5333 51.3857 25.6667C53.6524 24.2 55.3857 23.9333 57.7857 24.8667C62.1857 26.4667 62.8524 28.6 62.8524 39.8C62.8524 48.0667 63.1191 49 65.5191 49C67.9191 49 68.1857 48.0667 68.1857 41.6667C68.1857 27.9333 63.3857 21.6667 53.5191 22.6L48.4524 23L47.5191 16.0667C46.9857 11.2667 46.0524 9 44.7191 9C43.3857 9 42.8524 10.7333 42.8524 15.5333C42.8524 21.9333 42.8524 21.9333 38.5857 21.8C34.3191 21.6667 34.3191 21.5333 34.7191 15.2667C34.9857 9.66666 34.7191 9 32.3191 9C29.6524 9 29.5191 9.66667 29.5191 27.5333Z"/>
<path d="M139.186 47V55.6667L135.719 53.5333C128.252 48.6 119.319 52.7333 116.252 62.4667C113.319 72.3333 122.919 81 132.519 77C134.652 76.0667 136.519 74.7333 136.519 73.9333C136.519 73 135.986 73 134.919 74.0667C132.119 76.8667 126.252 75.9333 123.319 72.2C116.519 63.5333 122.919 49.5333 131.052 55.1333C135.186 58.0667 134.519 60.2 128.519 64.2C125.586 66.0667 123.186 68.0667 123.186 68.3333C123.186 69.2667 132.386 65.4 136.252 62.8667C139.186 61 139.186 61 139.186 68.2C139.186 76.0667 141.319 79.1333 145.852 77.6667C149.186 76.6 149.452 74.6 146.252 74.8667C144.252 75 143.852 73.5333 143.452 65.2667L143.052 55.6667H147.852C151.719 55.6667 152.652 55.2667 152.252 53.2667C151.986 51.6667 150.519 51 147.852 51C143.986 51 143.852 50.7333 143.452 44.6C143.186 40.2 142.519 38.3333 141.052 38.3333C139.586 38.3333 139.186 40.3333 139.186 47Z"/>
<path d="M139.506 95.7333C139.506 116.267 140.706 119.733 146.706 116.933C148.572 116.133 150.172 114.267 150.172 113.067C150.039 110.8 150.039 110.8 148.706 112.933C146.039 117.6 144.839 115.2 144.839 105.333V95.3333H148.839C151.906 95.3333 152.839 94.8 152.839 92.6667C152.839 90.5333 152.172 90.1333 148.839 90.8L144.839 91.6V84.8C144.839 78.9333 144.439 78 142.172 78C139.639 78 139.506 78.9333 139.506 95.7333Z"/>
<path d="M32.9191 51.4C25.1857 52.6 25.9857 59.1333 34.3857 65C43.5857 71.2667 46.9191 80.8667 43.7191 91.6667C41.4524 99.2667 36.5191 103.667 30.3857 103.667C20.2524 103.667 16.2524 98.8667 14.3857 84.8667C13.7191 80.3333 12.9191 78.3333 11.4524 78.3333C8.6524 78.3333 10.1191 91.2667 13.9857 99.2667C23.1857 118.333 48.1191 106.733 48.6524 83.1333C48.9191 73.9333 46.7857 70.6 37.1857 64.0667C29.4524 59 27.8524 55.1333 32.6524 53.9333C34.5191 53.4 37.0524 54.3333 39.9857 56.6C43.9857 59.5333 44.6524 59.6667 45.3191 57.6667C45.8524 56.4667 45.5857 54.8667 44.9191 54.2C43.1857 52.4667 36.3857 50.8667 32.9191 51.4Z"/>
<path d="M102.786 51.8C97.7191 53.1333 95.0524 55.5333 92.9191 60.7333C89.0524 70.2 96.6524 79.6667 106.519 77.8C110.652 77 115.852 73 112.786 73C111.986 73 110.919 73.5333 110.519 74.3333C109.052 76.7333 103.052 75.6667 99.8524 72.3333C97.4524 70.0667 96.5191 67.6667 96.5191 63.9333C96.5191 54.6 103.052 50.4667 108.652 56.4667C112.252 60.3333 112.119 60.3333 103.052 65.4C100.786 66.7333 99.1857 68.0667 99.5857 68.4667C100.919 69.9333 114.519 61.6667 114.919 59.2667C115.452 56.4667 112.119 52.2 108.786 51.4C107.586 51 104.786 51.2667 102.786 51.8Z"/>
<path d="M75.7857 23.8C72.5857 25.6667 69.5191 32.0667 69.5191 37C69.5191 42.6 75.7857 49 81.2524 49C83.3857 49 86.5857 47.8 88.3191 46.2C91.3857 43.6667 91.3857 43.5333 88.5857 44.8667C80.5857 48.7333 74.8524 44.4667 74.8524 34.4667C74.8524 28.0667 75.9191 26.2 80.5857 24.6C82.8524 23.8 88.1857 27.6667 88.1857 30.2C88.1857 30.8667 85.3857 33 82.0524 35C73.6524 39.9333 75.6524 40.7333 85.1191 36.0667C91.6524 32.8667 92.8524 31.8 92.4524 29.1333C92.3191 27.4 91.1191 25.1333 89.7857 24.2C87.1191 22.0667 79.1191 21.8 75.7857 23.8Z"/>
<path d="M51.1857 52.3333C51.1857 52.7333 52.7857 56.8667 54.6524 61.4C56.6524 65.9333 59.0524 71.6667 60.1191 74.2L62.1191 78.8667L66.5191 71.6667L71.0524 64.4667L74.1191 71.6667L77.3191 78.8667L82.1191 71C89.8524 57.9333 91.5857 54.2 90.1191 52.7333C88.1191 50.7333 85.8524 52.6 85.8524 56.0667C85.8524 58.8667 80.5191 70.3333 79.1857 70.3333C77.4524 70.3333 74.1191 58.6 74.7857 55.2667C75.4524 51.9333 75.1857 51.5333 73.0524 51.9333C71.1857 52.2 70.5191 53.5333 70.5191 56.3333C70.5191 58.6 69.0524 62.7333 67.3191 65.6667L64.1191 71L59.5857 61.2667C57.0524 55.6667 54.2524 51.6667 53.1857 51.6667C52.1191 51.6667 51.1857 51.9333 51.1857 52.3333Z"/>
<path d="M65.1058 92.9333C62.0391 96 63.5058 99.2 69.9058 104C77.2391 109.733 81.2391 116.533 81.1058 123.6C80.8391 136 75.2391 143.333 65.9058 143.333C56.1725 143.333 52.1725 138.667 50.7058 125.467C50.0391 119.467 49.3725 118 47.3725 118C44.9725 118 44.9725 117.867 46.9725 130C48.3058 138 52.5725 144.667 57.7725 146.933C70.9725 152.4 84.8391 140 84.8391 122.533C84.8391 113.467 82.3058 109.467 72.8391 103.333C65.9058 98.8 64.1725 94.8 68.8391 93.6C70.3058 93.2 73.1058 94.2667 75.6391 96.1333C80.0391 99.3333 82.1725 99.3333 82.1725 96C82.1725 91.8667 68.7058 89.3333 65.1058 92.9333Z"/>
<path d="M92.4392 92.8C87.5058 95.7333 86.1725 102.133 86.1725 123.467C86.1725 142.4 86.0392 143.6 83.5058 144.267C82.0392 144.667 80.8392 145.467 80.8392 146.133C80.8392 148.4 84.9725 147.333 88.1725 144C91.2392 141.067 91.5058 139.733 91.5058 128C91.5058 115.733 91.6392 115.333 94.0392 116.667C98.1725 118.8 101.639 118.267 106.039 114.533C112.839 108.933 112.839 96.2667 106.039 92.6667C102.973 90.9333 95.5058 91.0667 92.4392 92.8ZM102.839 96C105.372 98.4 106.173 100.667 106.173 105.2C106.173 111.867 103.639 115.333 98.8392 115.333C93.7725 115.333 91.5058 112 91.5058 104.267C91.5058 96.9333 92.3058 94.8 95.5058 93.6C98.8392 92.4 99.5058 92.5333 102.839 96Z"/>
<path d="M119.106 92.8C116.306 94.4 112.839 100.933 112.839 104.667C112.839 112.4 120.972 119.2 128.306 117.467C142.572 113.867 140.839 91.2 126.306 91.3333C123.639 91.3333 120.439 92 119.106 92.8ZM128.172 93.4667C130.972 94.6667 134.172 100.933 134.172 105.6C134.172 114.267 126.439 118.267 120.706 112.533C118.572 110.4 118.172 108.533 118.439 102.933C118.839 97.2 119.372 95.8667 122.172 94.4C126.172 92.4 125.506 92.5333 128.172 93.4667Z"/>
</mask>
<path d="M29.5191 27.5333C29.5191 42.0667 29.9191 46.3333 31.5191 47.6667C33.5191 49.2667 38.8524 48.3333 38.8524 46.3333C38.8524 45.6667 37.9191 45.4 36.8524 45.8C35.1191 46.4667 34.8524 45 34.8524 36.4667V26.3333H42.8524V37.6667C42.8524 48.0667 43.1191 49 45.5191 49C47.9191 49 48.1857 48.0667 48.1857 38.3333C48.1857 28.6 48.4524 27.5333 51.3857 25.6667C53.6524 24.2 55.3857 23.9333 57.7857 24.8667C62.1857 26.4667 62.8524 28.6 62.8524 39.8C62.8524 48.0667 63.1191 49 65.5191 49C67.9191 49 68.1857 48.0667 68.1857 41.6667C68.1857 27.9333 63.3857 21.6667 53.5191 22.6L48.4524 23L47.5191 16.0667C46.9857 11.2667 46.0524 9 44.7191 9C43.3857 9 42.8524 10.7333 42.8524 15.5333C42.8524 21.9333 42.8524 21.9333 38.5857 21.8C34.3191 21.6667 34.3191 21.5333 34.7191 15.2667C34.9857 9.66666 34.7191 9 32.3191 9C29.6524 9 29.5191 9.66667 29.5191 27.5333Z" fill="black"/>
<path d="M139.186 47V55.6667L135.719 53.5333C128.252 48.6 119.319 52.7333 116.252 62.4667C113.319 72.3333 122.919 81 132.519 77C134.652 76.0667 136.519 74.7333 136.519 73.9333C136.519 73 135.986 73 134.919 74.0667C132.119 76.8667 126.252 75.9333 123.319 72.2C116.519 63.5333 122.919 49.5333 131.052 55.1333C135.186 58.0667 134.519 60.2 128.519 64.2C125.586 66.0667 123.186 68.0667 123.186 68.3333C123.186 69.2667 132.386 65.4 136.252 62.8667C139.186 61 139.186 61 139.186 68.2C139.186 76.0667 141.319 79.1333 145.852 77.6667C149.186 76.6 149.452 74.6 146.252 74.8667C144.252 75 143.852 73.5333 143.452 65.2667L143.052 55.6667H147.852C151.719 55.6667 152.652 55.2667 152.252 53.2667C151.986 51.6667 150.519 51 147.852 51C143.986 51 143.852 50.7333 143.452 44.6C143.186 40.2 142.519 38.3333 141.052 38.3333C139.586 38.3333 139.186 40.3333 139.186 47Z" fill="black"/>
<path d="M139.506 95.7333C139.506 116.267 140.706 119.733 146.706 116.933C148.572 116.133 150.172 114.267 150.172 113.067C150.039 110.8 150.039 110.8 148.706 112.933C146.039 117.6 144.839 115.2 144.839 105.333V95.3333H148.839C151.906 95.3333 152.839 94.8 152.839 92.6667C152.839 90.5333 152.172 90.1333 148.839 90.8L144.839 91.6V84.8C144.839 78.9333 144.439 78 142.172 78C139.639 78 139.506 78.9333 139.506 95.7333Z" fill="black"/>
<path d="M32.9191 51.4C25.1857 52.6 25.9857 59.1333 34.3857 65C43.5857 71.2667 46.9191 80.8667 43.7191 91.6667C41.4524 99.2667 36.5191 103.667 30.3857 103.667C20.2524 103.667 16.2524 98.8667 14.3857 84.8667C13.7191 80.3333 12.9191 78.3333 11.4524 78.3333C8.6524 78.3333 10.1191 91.2667 13.9857 99.2667C23.1857 118.333 48.1191 106.733 48.6524 83.1333C48.9191 73.9333 46.7857 70.6 37.1857 64.0667C29.4524 59 27.8524 55.1333 32.6524 53.9333C34.5191 53.4 37.0524 54.3333 39.9857 56.6C43.9857 59.5333 44.6524 59.6667 45.3191 57.6667C45.8524 56.4667 45.5857 54.8667 44.9191 54.2C43.1857 52.4667 36.3857 50.8667 32.9191 51.4Z" fill="black"/>
<path d="M102.786 51.8C97.7191 53.1333 95.0524 55.5333 92.9191 60.7333C89.0524 70.2 96.6524 79.6667 106.519 77.8C110.652 77 115.852 73 112.786 73C111.986 73 110.919 73.5333 110.519 74.3333C109.052 76.7333 103.052 75.6667 99.8524 72.3333C97.4524 70.0667 96.5191 67.6667 96.5191 63.9333C96.5191 54.6 103.052 50.4667 108.652 56.4667C112.252 60.3333 112.119 60.3333 103.052 65.4C100.786 66.7333 99.1857 68.0667 99.5857 68.4667C100.919 69.9333 114.519 61.6667 114.919 59.2667C115.452 56.4667 112.119 52.2 108.786 51.4C107.586 51 104.786 51.2667 102.786 51.8Z" fill="black"/>
<path d="M75.7857 23.8C72.5857 25.6667 69.5191 32.0667 69.5191 37C69.5191 42.6 75.7857 49 81.2524 49C83.3857 49 86.5857 47.8 88.3191 46.2C91.3857 43.6667 91.3857 43.5333 88.5857 44.8667C80.5857 48.7333 74.8524 44.4667 74.8524 34.4667C74.8524 28.0667 75.9191 26.2 80.5857 24.6C82.8524 23.8 88.1857 27.6667 88.1857 30.2C88.1857 30.8667 85.3857 33 82.0524 35C73.6524 39.9333 75.6524 40.7333 85.1191 36.0667C91.6524 32.8667 92.8524 31.8 92.4524 29.1333C92.3191 27.4 91.1191 25.1333 89.7857 24.2C87.1191 22.0667 79.1191 21.8 75.7857 23.8Z" fill="black"/>
<path d="M51.1857 52.3333C51.1857 52.7333 52.7857 56.8667 54.6524 61.4C56.6524 65.9333 59.0524 71.6667 60.1191 74.2L62.1191 78.8667L66.5191 71.6667L71.0524 64.4667L74.1191 71.6667L77.3191 78.8667L82.1191 71C89.8524 57.9333 91.5857 54.2 90.1191 52.7333C88.1191 50.7333 85.8524 52.6 85.8524 56.0667C85.8524 58.8667 80.5191 70.3333 79.1857 70.3333C77.4524 70.3333 74.1191 58.6 74.7857 55.2667C75.4524 51.9333 75.1857 51.5333 73.0524 51.9333C71.1857 52.2 70.5191 53.5333 70.5191 56.3333C70.5191 58.6 69.0524 62.7333 67.3191 65.6667L64.1191 71L59.5857 61.2667C57.0524 55.6667 54.2524 51.6667 53.1857 51.6667C52.1191 51.6667 51.1857 51.9333 51.1857 52.3333Z" fill="black"/>
<path d="M65.1058 92.9333C62.0391 96 63.5058 99.2 69.9058 104C77.2391 109.733 81.2391 116.533 81.1058 123.6C80.8391 136 75.2391 143.333 65.9058 143.333C56.1725 143.333 52.1725 138.667 50.7058 125.467C50.0391 119.467 49.3725 118 47.3725 118C44.9725 118 44.9725 117.867 46.9725 130C48.3058 138 52.5725 144.667 57.7725 146.933C70.9725 152.4 84.8391 140 84.8391 122.533C84.8391 113.467 82.3058 109.467 72.8391 103.333C65.9058 98.8 64.1725 94.8 68.8391 93.6C70.3058 93.2 73.1058 94.2667 75.6391 96.1333C80.0391 99.3333 82.1725 99.3333 82.1725 96C82.1725 91.8667 68.7058 89.3333 65.1058 92.9333Z" fill="black"/>
<path d="M92.4392 92.8C87.5058 95.7333 86.1725 102.133 86.1725 123.467C86.1725 142.4 86.0392 143.6 83.5058 144.267C82.0392 144.667 80.8392 145.467 80.8392 146.133C80.8392 148.4 84.9725 147.333 88.1725 144C91.2392 141.067 91.5058 139.733 91.5058 128C91.5058 115.733 91.6392 115.333 94.0392 116.667C98.1725 118.8 101.639 118.267 106.039 114.533C112.839 108.933 112.839 96.2667 106.039 92.6667C102.973 90.9333 95.5058 91.0667 92.4392 92.8ZM102.839 96C105.372 98.4 106.173 100.667 106.173 105.2C106.173 111.867 103.639 115.333 98.8392 115.333C93.7725 115.333 91.5058 112 91.5058 104.267C91.5058 96.9333 92.3058 94.8 95.5058 93.6C98.8392 92.4 99.5058 92.5333 102.839 96Z" fill="black"/>
<path d="M119.106 92.8C116.306 94.4 112.839 100.933 112.839 104.667C112.839 112.4 120.972 119.2 128.306 117.467C142.572 113.867 140.839 91.2 126.306 91.3333C123.639 91.3333 120.439 92 119.106 92.8ZM128.172 93.4667C130.972 94.6667 134.172 100.933 134.172 105.6C134.172 114.267 126.439 118.267 120.706 112.533C118.572 110.4 118.172 108.533 118.439 102.933C118.839 97.2 119.372 95.8667 122.172 94.4C126.172 92.4 125.506 92.5333 128.172 93.4667Z" fill="black"/>
<path d="M29.5191 27.5333C29.5191 42.0667 29.9191 46.3333 31.5191 47.6667C33.5191 49.2667 38.8524 48.3333 38.8524 46.3333C38.8524 45.6667 37.9191 45.4 36.8524 45.8C35.1191 46.4667 34.8524 45 34.8524 36.4667V26.3333H42.8524V37.6667C42.8524 48.0667 43.1191 49 45.5191 49C47.9191 49 48.1857 48.0667 48.1857 38.3333C48.1857 28.6 48.4524 27.5333 51.3857 25.6667C53.6524 24.2 55.3857 23.9333 57.7857 24.8667C62.1857 26.4667 62.8524 28.6 62.8524 39.8C62.8524 48.0667 63.1191 49 65.5191 49C67.9191 49 68.1857 48.0667 68.1857 41.6667C68.1857 27.9333 63.3857 21.6667 53.5191 22.6L48.4524 23L47.5191 16.0667C46.9857 11.2667 46.0524 9 44.7191 9C43.3857 9 42.8524 10.7333 42.8524 15.5333C42.8524 21.9333 42.8524 21.9333 38.5857 21.8C34.3191 21.6667 34.3191 21.5333 34.7191 15.2667C34.9857 9.66666 34.7191 9 32.3191 9C29.6524 9 29.5191 9.66667 29.5191 27.5333Z" stroke="black" stroke-width="2" mask="url(#path-2-inside-1_1_67)"/>
<path d="M139.186 47V55.6667L135.719 53.5333C128.252 48.6 119.319 52.7333 116.252 62.4667C113.319 72.3333 122.919 81 132.519 77C134.652 76.0667 136.519 74.7333 136.519 73.9333C136.519 73 135.986 73 134.919 74.0667C132.119 76.8667 126.252 75.9333 123.319 72.2C116.519 63.5333 122.919 49.5333 131.052 55.1333C135.186 58.0667 134.519 60.2 128.519 64.2C125.586 66.0667 123.186 68.0667 123.186 68.3333C123.186 69.2667 132.386 65.4 136.252 62.8667C139.186 61 139.186 61 139.186 68.2C139.186 76.0667 141.319 79.1333 145.852 77.6667C149.186 76.6 149.452 74.6 146.252 74.8667C144.252 75 143.852 73.5333 143.452 65.2667L143.052 55.6667H147.852C151.719 55.6667 152.652 55.2667 152.252 53.2667C151.986 51.6667 150.519 51 147.852 51C143.986 51 143.852 50.7333 143.452 44.6C143.186 40.2 142.519 38.3333 141.052 38.3333C139.586 38.3333 139.186 40.3333 139.186 47Z" stroke="black" stroke-width="2" mask="url(#path-2-inside-1_1_67)"/>
<path d="M139.506 95.7333C139.506 116.267 140.706 119.733 146.706 116.933C148.572 116.133 150.172 114.267 150.172 113.067C150.039 110.8 150.039 110.8 148.706 112.933C146.039 117.6 144.839 115.2 144.839 105.333V95.3333H148.839C151.906 95.3333 152.839 94.8 152.839 92.6667C152.839 90.5333 152.172 90.1333 148.839 90.8L144.839 91.6V84.8C144.839 78.9333 144.439 78 142.172 78C139.639 78 139.506 78.9333 139.506 95.7333Z" stroke="black" stroke-width="2" mask="url(#path-2-inside-1_1_67)"/>
<path d="M32.9191 51.4C25.1857 52.6 25.9857 59.1333 34.3857 65C43.5857 71.2667 46.9191 80.8667 43.7191 91.6667C41.4524 99.2667 36.5191 103.667 30.3857 103.667C20.2524 103.667 16.2524 98.8667 14.3857 84.8667C13.7191 80.3333 12.9191 78.3333 11.4524 78.3333C8.6524 78.3333 10.1191 91.2667 13.9857 99.2667C23.1857 118.333 48.1191 106.733 48.6524 83.1333C48.9191 73.9333 46.7857 70.6 37.1857 64.0667C29.4524 59 27.8524 55.1333 32.6524 53.9333C34.5191 53.4 37.0524 54.3333 39.9857 56.6C43.9857 59.5333 44.6524 59.6667 45.3191 57.6667C45.8524 56.4667 45.5857 54.8667 44.9191 54.2C43.1857 52.4667 36.3857 50.8667 32.9191 51.4Z" stroke="black" stroke-width="2" mask="url(#path-2-inside-1_1_67)"/>
<path d="M102.786 51.8C97.7191 53.1333 95.0524 55.5333 92.9191 60.7333C89.0524 70.2 96.6524 79.6667 106.519 77.8C110.652 77 115.852 73 112.786 73C111.986 73 110.919 73.5333 110.519 74.3333C109.052 76.7333 103.052 75.6667 99.8524 72.3333C97.4524 70.0667 96.5191 67.6667 96.5191 63.9333C96.5191 54.6 103.052 50.4667 108.652 56.4667C112.252 60.3333 112.119 60.3333 103.052 65.4C100.786 66.7333 99.1857 68.0667 99.5857 68.4667C100.919 69.9333 114.519 61.6667 114.919 59.2667C115.452 56.4667 112.119 52.2 108.786 51.4C107.586 51 104.786 51.2667 102.786 51.8Z" stroke="black" stroke-width="2" mask="url(#path-2-inside-1_1_67)"/>
<path d="M75.7857 23.8C72.5857 25.6667 69.5191 32.0667 69.5191 37C69.5191 42.6 75.7857 49 81.2524 49C83.3857 49 86.5857 47.8 88.3191 46.2C91.3857 43.6667 91.3857 43.5333 88.5857 44.8667C80.5857 48.7333 74.8524 44.4667 74.8524 34.4667C74.8524 28.0667 75.9191 26.2 80.5857 24.6C82.8524 23.8 88.1857 27.6667 88.1857 30.2C88.1857 30.8667 85.3857 33 82.0524 35C73.6524 39.9333 75.6524 40.7333 85.1191 36.0667C91.6524 32.8667 92.8524 31.8 92.4524 29.1333C92.3191 27.4 91.1191 25.1333 89.7857 24.2C87.1191 22.0667 79.1191 21.8 75.7857 23.8Z" stroke="black" stroke-width="2" mask="url(#path-2-inside-1_1_67)"/>
<path d="M51.1857 52.3333C51.1857 52.7333 52.7857 56.8667 54.6524 61.4C56.6524 65.9333 59.0524 71.6667 60.1191 74.2L62.1191 78.8667L66.5191 71.6667L71.0524 64.4667L74.1191 71.6667L77.3191 78.8667L82.1191 71C89.8524 57.9333 91.5857 54.2 90.1191 52.7333C88.1191 50.7333 85.8524 52.6 85.8524 56.0667C85.8524 58.8667 80.5191 70.3333 79.1857 70.3333C77.4524 70.3333 74.1191 58.6 74.7857 55.2667C75.4524 51.9333 75.1857 51.5333 73.0524 51.9333C71.1857 52.2 70.5191 53.5333 70.5191 56.3333C70.5191 58.6 69.0524 62.7333 67.3191 65.6667L64.1191 71L59.5857 61.2667C57.0524 55.6667 54.2524 51.6667 53.1857 51.6667C52.1191 51.6667 51.1857 51.9333 51.1857 52.3333Z" stroke="black" stroke-width="2" mask="url(#path-2-inside-1_1_67)"/>
<path d="M65.1058 92.9333C62.0391 96 63.5058 99.2 69.9058 104C77.2391 109.733 81.2391 116.533 81.1058 123.6C80.8391 136 75.2391 143.333 65.9058 143.333C56.1725 143.333 52.1725 138.667 50.7058 125.467C50.0391 119.467 49.3725 118 47.3725 118C44.9725 118 44.9725 117.867 46.9725 130C48.3058 138 52.5725 144.667 57.7725 146.933C70.9725 152.4 84.8391 140 84.8391 122.533C84.8391 113.467 82.3058 109.467 72.8391 103.333C65.9058 98.8 64.1725 94.8 68.8391 93.6C70.3058 93.2 73.1058 94.2667 75.6391 96.1333C80.0391 99.3333 82.1725 99.3333 82.1725 96C82.1725 91.8667 68.7058 89.3333 65.1058 92.9333Z" stroke="black" stroke-width="2" mask="url(#path-2-inside-1_1_67)"/>
<path d="M92.4392 92.8C87.5058 95.7333 86.1725 102.133 86.1725 123.467C86.1725 142.4 86.0392 143.6 83.5058 144.267C82.0392 144.667 80.8392 145.467 80.8392 146.133C80.8392 148.4 84.9725 147.333 88.1725 144C91.2392 141.067 91.5058 139.733 91.5058 128C91.5058 115.733 91.6392 115.333 94.0392 116.667C98.1725 118.8 101.639 118.267 106.039 114.533C112.839 108.933 112.839 96.2667 106.039 92.6667C102.973 90.9333 95.5058 91.0667 92.4392 92.8ZM102.839 96C105.372 98.4 106.173 100.667 106.173 105.2C106.173 111.867 103.639 115.333 98.8392 115.333C93.7725 115.333 91.5058 112 91.5058 104.267C91.5058 96.9333 92.3058 94.8 95.5058 93.6C98.8392 92.4 99.5058 92.5333 102.839 96Z" stroke="black" stroke-width="2" mask="url(#path-2-inside-1_1_67)"/>
<path d="M119.106 92.8C116.306 94.4 112.839 100.933 112.839 104.667C112.839 112.4 120.972 119.2 128.306 117.467C142.572 113.867 140.839 91.2 126.306 91.3333C123.639 91.3333 120.439 92 119.106 92.8ZM128.172 93.4667C130.972 94.6667 134.172 100.933 134.172 105.6C134.172 114.267 126.439 118.267 120.706 112.533C118.572 110.4 118.172 108.533 118.439 102.933C118.839 97.2 119.372 95.8667 122.172 94.4C126.172 92.4 125.506 92.5333 128.172 93.4667Z" stroke="black" stroke-width="2" mask="url(#path-2-inside-1_1_67)"/>
</svg>
