<svg width="147" height="144" viewBox="0 0 147 144" fill="none" xmlns="http://www.w3.org/2000/svg">
<mask id="path-1-outside-1_13_86" maskUnits="userSpaceOnUse" x="0" y="0" width="147" height="144" fill="black">
<rect fill="white" width="147" height="144"/>
<path d="M21.5191 20.5333C21.5191 35.0667 21.9191 39.3333 23.5191 40.6667C25.5191 42.2667 30.8524 41.3333 30.8524 39.3333C30.8524 38.6667 29.9191 38.4 28.8524 38.8C27.1191 39.4667 26.8524 38 26.8524 29.4667V19.3333H34.8524V30.6667C34.8524 41.0667 35.1191 42 37.5191 42C39.9191 42 40.1857 41.0667 40.1857 31.3333C40.1857 21.6 40.4524 20.5333 43.3857 18.6667C45.6524 17.2 47.3857 16.9333 49.7857 17.8667C54.1857 19.4667 54.8524 21.6 54.8524 32.8C54.8524 41.0667 55.1191 42 57.5191 42C59.9191 42 60.1857 41.0667 60.1857 34.6667C60.1857 20.9333 55.3857 14.6667 45.5191 15.6L40.4524 16L39.5191 9.06667C38.9857 4.26667 38.0524 2 36.7191 2C35.3857 2 34.8524 3.73333 34.8524 8.53333C34.8524 14.9333 34.8524 14.9333 30.5857 14.8C26.3191 14.6667 26.3191 14.5333 26.7191 8.26667C26.9857 2.66667 26.7191 2 24.3191 2C21.6524 2 21.5191 2.66667 21.5191 20.5333Z"/>
<path d="M131.186 40V48.6667L127.719 46.5333C120.252 41.6 111.319 45.7333 108.252 55.4667C105.319 65.3333 114.919 74 124.519 70C126.652 69.0667 128.519 67.7333 128.519 66.9333C128.519 66 127.986 66 126.919 67.0667C124.119 69.8667 118.252 68.9333 115.319 65.2C108.519 56.5333 114.919 42.5333 123.052 48.1333C127.186 51.0667 126.519 53.2 120.519 57.2C117.586 59.0667 115.186 61.0667 115.186 61.3333C115.186 62.2667 124.386 58.4 128.252 55.8667C131.186 54 131.186 54 131.186 61.2C131.186 69.0667 133.319 72.1333 137.852 70.6667C141.186 69.6 141.452 67.6 138.252 67.8667C136.252 68 135.852 66.5333 135.452 58.2667L135.052 48.6667H139.852C143.719 48.6667 144.652 48.2667 144.252 46.2667C143.986 44.6667 142.519 44 139.852 44C135.986 44 135.852 43.7333 135.452 37.6C135.186 33.2 134.519 31.3333 133.052 31.3333C131.586 31.3333 131.186 33.3333 131.186 40Z"/>
<path d="M131.506 88.7333C131.506 109.267 132.706 112.733 138.706 109.933C140.572 109.133 142.172 107.267 142.172 106.067C142.039 103.8 142.039 103.8 140.706 105.933C138.039 110.6 136.839 108.2 136.839 98.3333V88.3333H140.839C143.906 88.3333 144.839 87.8 144.839 85.6667C144.839 83.5333 144.172 83.1333 140.839 83.8L136.839 84.6V77.8C136.839 71.9333 136.439 71 134.172 71C131.639 71 131.506 71.9333 131.506 88.7333Z"/>
<path d="M24.9191 44.4C17.1857 45.6 17.9857 52.1333 26.3857 58C35.5857 64.2667 38.9191 73.8667 35.7191 84.6667C33.4524 92.2667 28.5191 96.6667 22.3857 96.6667C12.2524 96.6667 8.2524 91.8667 6.38573 77.8667C5.71907 73.3333 4.91907 71.3333 3.4524 71.3333C0.6524 71.3333 2.11907 84.2667 5.98573 92.2667C15.1857 111.333 40.1191 99.7333 40.6524 76.1333C40.9191 66.9333 38.7857 63.6 29.1857 57.0667C21.4524 52 19.8524 48.1333 24.6524 46.9333C26.5191 46.4 29.0524 47.3333 31.9857 49.6C35.9857 52.5333 36.6524 52.6667 37.3191 50.6667C37.8524 49.4667 37.5857 47.8667 36.9191 47.2C35.1857 45.4667 28.3857 43.8667 24.9191 44.4Z"/>
<path d="M94.7857 44.8C89.7191 46.1333 87.0524 48.5333 84.9191 53.7333C81.0524 63.2 88.6524 72.6667 98.5191 70.8C102.652 70 107.852 66 104.786 66C103.986 66 102.919 66.5333 102.519 67.3333C101.052 69.7333 95.0524 68.6667 91.8524 65.3333C89.4524 63.0667 88.5191 60.6667 88.5191 56.9333C88.5191 47.6 95.0524 43.4667 100.652 49.4667C104.252 53.3333 104.119 53.3333 95.0524 58.4C92.7857 59.7333 91.1857 61.0667 91.5857 61.4667C92.9191 62.9333 106.519 54.6667 106.919 52.2667C107.452 49.4667 104.119 45.2 100.786 44.4C99.5857 44 96.7857 44.2667 94.7857 44.8Z"/>
<path d="M67.7857 16.8C64.5857 18.6667 61.5191 25.0667 61.5191 30C61.5191 35.6 67.7857 42 73.2524 42C75.3857 42 78.5857 40.8 80.3191 39.2C83.3857 36.6667 83.3857 36.5333 80.5857 37.8667C72.5857 41.7333 66.8524 37.4667 66.8524 27.4667C66.8524 21.0667 67.9191 19.2 72.5857 17.6C74.8524 16.8 80.1857 20.6667 80.1857 23.2C80.1857 23.8667 77.3857 26 74.0524 28C65.6524 32.9333 67.6524 33.7333 77.1191 29.0667C83.6524 25.8667 84.8524 24.8 84.4524 22.1333C84.3191 20.4 83.1191 18.1333 81.7857 17.2C79.1191 15.0667 71.1191 14.8 67.7857 16.8Z"/>
<path d="M43.1857 45.3333C43.1857 45.7333 44.7857 49.8667 46.6524 54.4C48.6524 58.9333 51.0524 64.6667 52.1191 67.2L54.1191 71.8667L58.5191 64.6667L63.0524 57.4667L66.1191 64.6667L69.3191 71.8667L74.1191 64C81.8524 50.9333 83.5857 47.2 82.1191 45.7333C80.1191 43.7333 77.8524 45.6 77.8524 49.0667C77.8524 51.8667 72.5191 63.3333 71.1857 63.3333C69.4524 63.3333 66.1191 51.6 66.7857 48.2667C67.4524 44.9333 67.1857 44.5333 65.0524 44.9333C63.1857 45.2 62.5191 46.5333 62.5191 49.3333C62.5191 51.6 61.0524 55.7333 59.3191 58.6667L56.1191 64L51.5857 54.2667C49.0524 48.6667 46.2524 44.6667 45.1857 44.6667C44.1191 44.6667 43.1857 44.9333 43.1857 45.3333Z"/>
<path d="M57.1058 85.9333C54.0391 89 55.5058 92.2 61.9058 97C69.2391 102.733 73.2391 109.533 73.1058 116.6C72.8391 129 67.2391 136.333 57.9058 136.333C48.1725 136.333 44.1725 131.667 42.7058 118.467C42.0391 112.467 41.3725 111 39.3725 111C36.9725 111 36.9725 110.867 38.9725 123C40.3058 131 44.5725 137.667 49.7725 139.933C62.9725 145.4 76.8391 133 76.8391 115.533C76.8391 106.467 74.3058 102.467 64.8391 96.3333C57.9058 91.8 56.1725 87.8 60.8391 86.6C62.3058 86.2 65.1058 87.2667 67.6391 89.1333C72.0391 92.3333 74.1725 92.3333 74.1725 89C74.1725 84.8667 60.7058 82.3333 57.1058 85.9333Z"/>
<path d="M84.4392 85.8C79.5058 88.7333 78.1725 95.1333 78.1725 116.467C78.1725 135.4 78.0392 136.6 75.5058 137.267C74.0392 137.667 72.8392 138.467 72.8392 139.133C72.8392 141.4 76.9725 140.333 80.1725 137C83.2392 134.067 83.5058 132.733 83.5058 121C83.5058 108.733 83.6392 108.333 86.0392 109.667C90.1725 111.8 93.6392 111.267 98.0392 107.533C104.839 101.933 104.839 89.2667 98.0392 85.6667C94.9725 83.9333 87.5058 84.0667 84.4392 85.8ZM94.8392 89C97.3725 91.4 98.1725 93.6667 98.1725 98.2C98.1725 104.867 95.6392 108.333 90.8392 108.333C85.7725 108.333 83.5058 105 83.5058 97.2667C83.5058 89.9333 84.3058 87.8 87.5058 86.6C90.8392 85.4 91.5058 85.5333 94.8392 89Z"/>
<path d="M111.106 85.8C108.306 87.4 104.839 93.9333 104.839 97.6667C104.839 105.4 112.972 112.2 120.306 110.467C134.572 106.867 132.839 84.2 118.306 84.3333C115.639 84.3333 112.439 85 111.106 85.8ZM120.172 86.4667C122.972 87.6667 126.172 93.9333 126.172 98.6C126.172 107.267 118.439 111.267 112.706 105.533C110.572 103.4 110.172 101.533 110.439 95.9333C110.839 90.2 111.372 88.8667 114.172 87.4C118.172 85.4 117.506 85.5333 120.172 86.4667Z"/>
</mask>
<path d="M21.5191 20.5333C21.5191 35.0667 21.9191 39.3333 23.5191 40.6667C25.5191 42.2667 30.8524 41.3333 30.8524 39.3333C30.8524 38.6667 29.9191 38.4 28.8524 38.8C27.1191 39.4667 26.8524 38 26.8524 29.4667V19.3333H34.8524V30.6667C34.8524 41.0667 35.1191 42 37.5191 42C39.9191 42 40.1857 41.0667 40.1857 31.3333C40.1857 21.6 40.4524 20.5333 43.3857 18.6667C45.6524 17.2 47.3857 16.9333 49.7857 17.8667C54.1857 19.4667 54.8524 21.6 54.8524 32.8C54.8524 41.0667 55.1191 42 57.5191 42C59.9191 42 60.1857 41.0667 60.1857 34.6667C60.1857 20.9333 55.3857 14.6667 45.5191 15.6L40.4524 16L39.5191 9.06667C38.9857 4.26667 38.0524 2 36.7191 2C35.3857 2 34.8524 3.73333 34.8524 8.53333C34.8524 14.9333 34.8524 14.9333 30.5857 14.8C26.3191 14.6667 26.3191 14.5333 26.7191 8.26667C26.9857 2.66667 26.7191 2 24.3191 2C21.6524 2 21.5191 2.66667 21.5191 20.5333Z" fill="black"/>
<path d="M131.186 40V48.6667L127.719 46.5333C120.252 41.6 111.319 45.7333 108.252 55.4667C105.319 65.3333 114.919 74 124.519 70C126.652 69.0667 128.519 67.7333 128.519 66.9333C128.519 66 127.986 66 126.919 67.0667C124.119 69.8667 118.252 68.9333 115.319 65.2C108.519 56.5333 114.919 42.5333 123.052 48.1333C127.186 51.0667 126.519 53.2 120.519 57.2C117.586 59.0667 115.186 61.0667 115.186 61.3333C115.186 62.2667 124.386 58.4 128.252 55.8667C131.186 54 131.186 54 131.186 61.2C131.186 69.0667 133.319 72.1333 137.852 70.6667C141.186 69.6 141.452 67.6 138.252 67.8667C136.252 68 135.852 66.5333 135.452 58.2667L135.052 48.6667H139.852C143.719 48.6667 144.652 48.2667 144.252 46.2667C143.986 44.6667 142.519 44 139.852 44C135.986 44 135.852 43.7333 135.452 37.6C135.186 33.2 134.519 31.3333 133.052 31.3333C131.586 31.3333 131.186 33.3333 131.186 40Z" fill="black"/>
<path d="M131.506 88.7333C131.506 109.267 132.706 112.733 138.706 109.933C140.572 109.133 142.172 107.267 142.172 106.067C142.039 103.8 142.039 103.8 140.706 105.933C138.039 110.6 136.839 108.2 136.839 98.3333V88.3333H140.839C143.906 88.3333 144.839 87.8 144.839 85.6667C144.839 83.5333 144.172 83.1333 140.839 83.8L136.839 84.6V77.8C136.839 71.9333 136.439 71 134.172 71C131.639 71 131.506 71.9333 131.506 88.7333Z" fill="black"/>
<path d="M24.9191 44.4C17.1857 45.6 17.9857 52.1333 26.3857 58C35.5857 64.2667 38.9191 73.8667 35.7191 84.6667C33.4524 92.2667 28.5191 96.6667 22.3857 96.6667C12.2524 96.6667 8.2524 91.8667 6.38573 77.8667C5.71907 73.3333 4.91907 71.3333 3.4524 71.3333C0.6524 71.3333 2.11907 84.2667 5.98573 92.2667C15.1857 111.333 40.1191 99.7333 40.6524 76.1333C40.9191 66.9333 38.7857 63.6 29.1857 57.0667C21.4524 52 19.8524 48.1333 24.6524 46.9333C26.5191 46.4 29.0524 47.3333 31.9857 49.6C35.9857 52.5333 36.6524 52.6667 37.3191 50.6667C37.8524 49.4667 37.5857 47.8667 36.9191 47.2C35.1857 45.4667 28.3857 43.8667 24.9191 44.4Z" fill="black"/>
<path d="M94.7857 44.8C89.7191 46.1333 87.0524 48.5333 84.9191 53.7333C81.0524 63.2 88.6524 72.6667 98.5191 70.8C102.652 70 107.852 66 104.786 66C103.986 66 102.919 66.5333 102.519 67.3333C101.052 69.7333 95.0524 68.6667 91.8524 65.3333C89.4524 63.0667 88.5191 60.6667 88.5191 56.9333C88.5191 47.6 95.0524 43.4667 100.652 49.4667C104.252 53.3333 104.119 53.3333 95.0524 58.4C92.7857 59.7333 91.1857 61.0667 91.5857 61.4667C92.9191 62.9333 106.519 54.6667 106.919 52.2667C107.452 49.4667 104.119 45.2 100.786 44.4C99.5857 44 96.7857 44.2667 94.7857 44.8Z" fill="black"/>
<path d="M67.7857 16.8C64.5857 18.6667 61.5191 25.0667 61.5191 30C61.5191 35.6 67.7857 42 73.2524 42C75.3857 42 78.5857 40.8 80.3191 39.2C83.3857 36.6667 83.3857 36.5333 80.5857 37.8667C72.5857 41.7333 66.8524 37.4667 66.8524 27.4667C66.8524 21.0667 67.9191 19.2 72.5857 17.6C74.8524 16.8 80.1857 20.6667 80.1857 23.2C80.1857 23.8667 77.3857 26 74.0524 28C65.6524 32.9333 67.6524 33.7333 77.1191 29.0667C83.6524 25.8667 84.8524 24.8 84.4524 22.1333C84.3191 20.4 83.1191 18.1333 81.7857 17.2C79.1191 15.0667 71.1191 14.8 67.7857 16.8Z" fill="black"/>
<path d="M43.1857 45.3333C43.1857 45.7333 44.7857 49.8667 46.6524 54.4C48.6524 58.9333 51.0524 64.6667 52.1191 67.2L54.1191 71.8667L58.5191 64.6667L63.0524 57.4667L66.1191 64.6667L69.3191 71.8667L74.1191 64C81.8524 50.9333 83.5857 47.2 82.1191 45.7333C80.1191 43.7333 77.8524 45.6 77.8524 49.0667C77.8524 51.8667 72.5191 63.3333 71.1857 63.3333C69.4524 63.3333 66.1191 51.6 66.7857 48.2667C67.4524 44.9333 67.1857 44.5333 65.0524 44.9333C63.1857 45.2 62.5191 46.5333 62.5191 49.3333C62.5191 51.6 61.0524 55.7333 59.3191 58.6667L56.1191 64L51.5857 54.2667C49.0524 48.6667 46.2524 44.6667 45.1857 44.6667C44.1191 44.6667 43.1857 44.9333 43.1857 45.3333Z" fill="black"/>
<path d="M57.1058 85.9333C54.0391 89 55.5058 92.2 61.9058 97C69.2391 102.733 73.2391 109.533 73.1058 116.6C72.8391 129 67.2391 136.333 57.9058 136.333C48.1725 136.333 44.1725 131.667 42.7058 118.467C42.0391 112.467 41.3725 111 39.3725 111C36.9725 111 36.9725 110.867 38.9725 123C40.3058 131 44.5725 137.667 49.7725 139.933C62.9725 145.4 76.8391 133 76.8391 115.533C76.8391 106.467 74.3058 102.467 64.8391 96.3333C57.9058 91.8 56.1725 87.8 60.8391 86.6C62.3058 86.2 65.1058 87.2667 67.6391 89.1333C72.0391 92.3333 74.1725 92.3333 74.1725 89C74.1725 84.8667 60.7058 82.3333 57.1058 85.9333Z" fill="black"/>
<path d="M84.4392 85.8C79.5058 88.7333 78.1725 95.1333 78.1725 116.467C78.1725 135.4 78.0392 136.6 75.5058 137.267C74.0392 137.667 72.8392 138.467 72.8392 139.133C72.8392 141.4 76.9725 140.333 80.1725 137C83.2392 134.067 83.5058 132.733 83.5058 121C83.5058 108.733 83.6392 108.333 86.0392 109.667C90.1725 111.8 93.6392 111.267 98.0392 107.533C104.839 101.933 104.839 89.2667 98.0392 85.6667C94.9725 83.9333 87.5058 84.0667 84.4392 85.8ZM94.8392 89C97.3725 91.4 98.1725 93.6667 98.1725 98.2C98.1725 104.867 95.6392 108.333 90.8392 108.333C85.7725 108.333 83.5058 105 83.5058 97.2667C83.5058 89.9333 84.3058 87.8 87.5058 86.6C90.8392 85.4 91.5058 85.5333 94.8392 89Z" fill="black"/>
<path d="M111.106 85.8C108.306 87.4 104.839 93.9333 104.839 97.6667C104.839 105.4 112.972 112.2 120.306 110.467C134.572 106.867 132.839 84.2 118.306 84.3333C115.639 84.3333 112.439 85 111.106 85.8ZM120.172 86.4667C122.972 87.6667 126.172 93.9333 126.172 98.6C126.172 107.267 118.439 111.267 112.706 105.533C110.572 103.4 110.172 101.533 110.439 95.9333C110.839 90.2 111.372 88.8667 114.172 87.4C118.172 85.4 117.506 85.5333 120.172 86.4667Z" fill="black"/>
<path d="M21.5191 20.5333C21.5191 35.0667 21.9191 39.3333 23.5191 40.6667C25.5191 42.2667 30.8524 41.3333 30.8524 39.3333C30.8524 38.6667 29.9191 38.4 28.8524 38.8C27.1191 39.4667 26.8524 38 26.8524 29.4667V19.3333H34.8524V30.6667C34.8524 41.0667 35.1191 42 37.5191 42C39.9191 42 40.1857 41.0667 40.1857 31.3333C40.1857 21.6 40.4524 20.5333 43.3857 18.6667C45.6524 17.2 47.3857 16.9333 49.7857 17.8667C54.1857 19.4667 54.8524 21.6 54.8524 32.8C54.8524 41.0667 55.1191 42 57.5191 42C59.9191 42 60.1857 41.0667 60.1857 34.6667C60.1857 20.9333 55.3857 14.6667 45.5191 15.6L40.4524 16L39.5191 9.06667C38.9857 4.26667 38.0524 2 36.7191 2C35.3857 2 34.8524 3.73333 34.8524 8.53333C34.8524 14.9333 34.8524 14.9333 30.5857 14.8C26.3191 14.6667 26.3191 14.5333 26.7191 8.26667C26.9857 2.66667 26.7191 2 24.3191 2C21.6524 2 21.5191 2.66667 21.5191 20.5333Z" stroke="white" stroke-width="4" mask="url(#path-1-outside-1_13_86)"/>
<path d="M131.186 40V48.6667L127.719 46.5333C120.252 41.6 111.319 45.7333 108.252 55.4667C105.319 65.3333 114.919 74 124.519 70C126.652 69.0667 128.519 67.7333 128.519 66.9333C128.519 66 127.986 66 126.919 67.0667C124.119 69.8667 118.252 68.9333 115.319 65.2C108.519 56.5333 114.919 42.5333 123.052 48.1333C127.186 51.0667 126.519 53.2 120.519 57.2C117.586 59.0667 115.186 61.0667 115.186 61.3333C115.186 62.2667 124.386 58.4 128.252 55.8667C131.186 54 131.186 54 131.186 61.2C131.186 69.0667 133.319 72.1333 137.852 70.6667C141.186 69.6 141.452 67.6 138.252 67.8667C136.252 68 135.852 66.5333 135.452 58.2667L135.052 48.6667H139.852C143.719 48.6667 144.652 48.2667 144.252 46.2667C143.986 44.6667 142.519 44 139.852 44C135.986 44 135.852 43.7333 135.452 37.6C135.186 33.2 134.519 31.3333 133.052 31.3333C131.586 31.3333 131.186 33.3333 131.186 40Z" stroke="white" stroke-width="4" mask="url(#path-1-outside-1_13_86)"/>
<path d="M131.506 88.7333C131.506 109.267 132.706 112.733 138.706 109.933C140.572 109.133 142.172 107.267 142.172 106.067C142.039 103.8 142.039 103.8 140.706 105.933C138.039 110.6 136.839 108.2 136.839 98.3333V88.3333H140.839C143.906 88.3333 144.839 87.8 144.839 85.6667C144.839 83.5333 144.172 83.1333 140.839 83.8L136.839 84.6V77.8C136.839 71.9333 136.439 71 134.172 71C131.639 71 131.506 71.9333 131.506 88.7333Z" stroke="white" stroke-width="4" mask="url(#path-1-outside-1_13_86)"/>
<path d="M24.9191 44.4C17.1857 45.6 17.9857 52.1333 26.3857 58C35.5857 64.2667 38.9191 73.8667 35.7191 84.6667C33.4524 92.2667 28.5191 96.6667 22.3857 96.6667C12.2524 96.6667 8.2524 91.8667 6.38573 77.8667C5.71907 73.3333 4.91907 71.3333 3.4524 71.3333C0.6524 71.3333 2.11907 84.2667 5.98573 92.2667C15.1857 111.333 40.1191 99.7333 40.6524 76.1333C40.9191 66.9333 38.7857 63.6 29.1857 57.0667C21.4524 52 19.8524 48.1333 24.6524 46.9333C26.5191 46.4 29.0524 47.3333 31.9857 49.6C35.9857 52.5333 36.6524 52.6667 37.3191 50.6667C37.8524 49.4667 37.5857 47.8667 36.9191 47.2C35.1857 45.4667 28.3857 43.8667 24.9191 44.4Z" stroke="white" stroke-width="4" mask="url(#path-1-outside-1_13_86)"/>
<path d="M94.7857 44.8C89.7191 46.1333 87.0524 48.5333 84.9191 53.7333C81.0524 63.2 88.6524 72.6667 98.5191 70.8C102.652 70 107.852 66 104.786 66C103.986 66 102.919 66.5333 102.519 67.3333C101.052 69.7333 95.0524 68.6667 91.8524 65.3333C89.4524 63.0667 88.5191 60.6667 88.5191 56.9333C88.5191 47.6 95.0524 43.4667 100.652 49.4667C104.252 53.3333 104.119 53.3333 95.0524 58.4C92.7857 59.7333 91.1857 61.0667 91.5857 61.4667C92.9191 62.9333 106.519 54.6667 106.919 52.2667C107.452 49.4667 104.119 45.2 100.786 44.4C99.5857 44 96.7857 44.2667 94.7857 44.8Z" stroke="white" stroke-width="4" mask="url(#path-1-outside-1_13_86)"/>
<path d="M67.7857 16.8C64.5857 18.6667 61.5191 25.0667 61.5191 30C61.5191 35.6 67.7857 42 73.2524 42C75.3857 42 78.5857 40.8 80.3191 39.2C83.3857 36.6667 83.3857 36.5333 80.5857 37.8667C72.5857 41.7333 66.8524 37.4667 66.8524 27.4667C66.8524 21.0667 67.9191 19.2 72.5857 17.6C74.8524 16.8 80.1857 20.6667 80.1857 23.2C80.1857 23.8667 77.3857 26 74.0524 28C65.6524 32.9333 67.6524 33.7333 77.1191 29.0667C83.6524 25.8667 84.8524 24.8 84.4524 22.1333C84.3191 20.4 83.1191 18.1333 81.7857 17.2C79.1191 15.0667 71.1191 14.8 67.7857 16.8Z" stroke="white" stroke-width="4" mask="url(#path-1-outside-1_13_86)"/>
<path d="M43.1857 45.3333C43.1857 45.7333 44.7857 49.8667 46.6524 54.4C48.6524 58.9333 51.0524 64.6667 52.1191 67.2L54.1191 71.8667L58.5191 64.6667L63.0524 57.4667L66.1191 64.6667L69.3191 71.8667L74.1191 64C81.8524 50.9333 83.5857 47.2 82.1191 45.7333C80.1191 43.7333 77.8524 45.6 77.8524 49.0667C77.8524 51.8667 72.5191 63.3333 71.1857 63.3333C69.4524 63.3333 66.1191 51.6 66.7857 48.2667C67.4524 44.9333 67.1857 44.5333 65.0524 44.9333C63.1857 45.2 62.5191 46.5333 62.5191 49.3333C62.5191 51.6 61.0524 55.7333 59.3191 58.6667L56.1191 64L51.5857 54.2667C49.0524 48.6667 46.2524 44.6667 45.1857 44.6667C44.1191 44.6667 43.1857 44.9333 43.1857 45.3333Z" stroke="white" stroke-width="4" mask="url(#path-1-outside-1_13_86)"/>
<path d="M57.1058 85.9333C54.0391 89 55.5058 92.2 61.9058 97C69.2391 102.733 73.2391 109.533 73.1058 116.6C72.8391 129 67.2391 136.333 57.9058 136.333C48.1725 136.333 44.1725 131.667 42.7058 118.467C42.0391 112.467 41.3725 111 39.3725 111C36.9725 111 36.9725 110.867 38.9725 123C40.3058 131 44.5725 137.667 49.7725 139.933C62.9725 145.4 76.8391 133 76.8391 115.533C76.8391 106.467 74.3058 102.467 64.8391 96.3333C57.9058 91.8 56.1725 87.8 60.8391 86.6C62.3058 86.2 65.1058 87.2667 67.6391 89.1333C72.0391 92.3333 74.1725 92.3333 74.1725 89C74.1725 84.8667 60.7058 82.3333 57.1058 85.9333Z" stroke="white" stroke-width="4" mask="url(#path-1-outside-1_13_86)"/>
<path d="M84.4392 85.8C79.5058 88.7333 78.1725 95.1333 78.1725 116.467C78.1725 135.4 78.0392 136.6 75.5058 137.267C74.0392 137.667 72.8392 138.467 72.8392 139.133C72.8392 141.4 76.9725 140.333 80.1725 137C83.2392 134.067 83.5058 132.733 83.5058 121C83.5058 108.733 83.6392 108.333 86.0392 109.667C90.1725 111.8 93.6392 111.267 98.0392 107.533C104.839 101.933 104.839 89.2667 98.0392 85.6667C94.9725 83.9333 87.5058 84.0667 84.4392 85.8ZM94.8392 89C97.3725 91.4 98.1725 93.6667 98.1725 98.2C98.1725 104.867 95.6392 108.333 90.8392 108.333C85.7725 108.333 83.5058 105 83.5058 97.2667C83.5058 89.9333 84.3058 87.8 87.5058 86.6C90.8392 85.4 91.5058 85.5333 94.8392 89Z" stroke="white" stroke-width="4" mask="url(#path-1-outside-1_13_86)"/>
<path d="M111.106 85.8C108.306 87.4 104.839 93.9333 104.839 97.6667C104.839 105.4 112.972 112.2 120.306 110.467C134.572 106.867 132.839 84.2 118.306 84.3333C115.639 84.3333 112.439 85 111.106 85.8ZM120.172 86.4667C122.972 87.6667 126.172 93.9333 126.172 98.6C126.172 107.267 118.439 111.267 112.706 105.533C110.572 103.4 110.172 101.533 110.439 95.9333C110.839 90.2 111.372 88.8667 114.172 87.4C118.172 85.4 117.506 85.5333 120.172 86.4667Z" stroke="white" stroke-width="4" mask="url(#path-1-outside-1_13_86)"/>
</svg>
