<svg width="310" height="71" viewBox="0 0 310 71" fill="none" xmlns="http://www.w3.org/2000/svg">
<path d="M0 18.8667C0 33.4 0.4 37.6667 2 39C4 40.6 9.33333 39.6667 9.33333 37.6667C9.33333 37 8.4 36.7333 7.33333 37.1333C5.6 37.8 5.33333 36.3333 5.33333 27.8V17.6667H9.33333H13.3333V29C13.3333 39.4 13.6 40.3333 16 40.3333C18.4 40.3333 18.6667 39.4 18.6667 29.6667C18.6667 19.9333 18.9333 18.8667 21.8667 17C24.1333 15.5333 25.8667 15.2667 28.2667 16.2C32.6667 17.8 33.3333 19.9333 33.3333 31.1333C33.3333 39.4 33.6 40.3333 36 40.3333C38.4 40.3333 38.6667 39.4 38.6667 33C38.6667 19.2667 33.8667 13 24 13.9333L18.9333 14.3333L18 7.39999C17.4667 2.59999 16.5333 0.333326 15.2 0.333326C13.8667 0.333326 13.3333 2.06666 13.3333 6.86666C13.3333 13.2667 13.3333 13.2667 9.06667 13.1333C4.8 13 4.8 12.8667 5.2 6.59999C5.46667 0.999993 5.2 0.333326 2.8 0.333326C0.133333 0.333326 0 0.999993 0 18.8667Z" fill="black"/>
<path d="M190.667 8.99999V17.6667L187.2 15.5333C179.733 10.6 170.8 14.7333 167.733 24.4667C164.8 34.3333 174.4 43 184 39C186.133 38.0667 188 36.7333 188 35.9333C188 35 187.467 35 186.4 36.0667C183.6 38.8667 177.733 37.9333 174.8 34.2C168 25.5333 174.4 11.5333 182.533 17.1333C186.667 20.0667 186 22.2 180 26.2C177.067 28.0667 174.667 30.0667 174.667 30.3333C174.667 31.2667 183.867 27.4 187.733 24.8667C190.667 23 190.667 23 190.667 30.2C190.667 38.0667 192.8 41.1333 197.333 39.6667C200.667 38.6 200.933 36.6 197.733 36.8667C195.733 37 195.333 35.5333 194.933 27.2667L194.533 17.6667H199.333C203.2 17.6667 204.133 17.2667 203.733 15.2667C203.467 13.6667 202 13 199.333 13C195.467 13 195.333 12.7333 194.933 6.59999C194.667 2.19999 194 0.33332 192.533 0.33332C191.067 0.33332 190.667 2.33332 190.667 8.99999Z" fill="black"/>
<path d="M296 18.0667C296 38.6 297.2 42.0667 303.2 39.2667C305.067 38.4667 306.667 36.6 306.667 35.4C306.533 33.1333 306.533 33.1333 305.2 35.2667C302.533 39.9333 301.333 37.5333 301.333 27.6667V17.6667H305.333C308.4 17.6667 309.333 17.1333 309.333 15C309.333 12.8667 308.667 12.4667 305.333 13.1333L301.333 13.9333V7.13333C301.333 1.26666 300.933 0.333324 298.667 0.333324C296.133 0.333324 296 1.26666 296 18.0667Z" fill="black"/>
<path d="M84.4 13.4C76.6667 14.6 77.4667 21.1333 85.8667 27C95.0667 33.2667 98.4 42.8667 95.2 53.6667C92.9333 61.2667 88 65.6667 81.8667 65.6667C71.7333 65.6667 67.7333 60.8667 65.8667 46.8667C65.2 42.3333 64.4 40.3333 62.9333 40.3333C60.1333 40.3333 61.6 53.2667 65.4667 61.2667C74.6667 80.3333 99.6 68.7333 100.133 45.1333C100.4 35.9333 98.2667 32.6 88.6667 26.0667C80.9333 21 79.3333 17.1333 84.1333 15.9333C86 15.4 88.5333 16.3333 91.4667 18.6C95.4667 21.5333 96.1333 21.6667 96.8 19.6667C97.3333 18.4667 97.0667 16.8667 96.4 16.2C94.6667 14.4667 87.8667 12.8667 84.4 13.4Z" fill="black"/>
<path d="M154.267 13.8C149.2 15.1333 146.533 17.5333 144.4 22.7333C140.533 32.2 148.133 41.6667 158 39.8C162.133 39 167.333 35 164.267 35C163.467 35 162.4 35.5333 162 36.3333C160.533 38.7333 154.533 37.6667 151.333 34.3333C148.933 32.0667 148 29.6667 148 25.9333C148 16.6 154.533 12.4667 160.133 18.4667C163.733 22.3333 163.6 22.3333 154.533 27.4C152.267 28.7333 150.667 30.0667 151.067 30.4667C152.4 31.9333 166 23.6667 166.4 21.2667C166.933 18.4667 163.6 14.2 160.267 13.4C159.067 13 156.267 13.2667 154.267 13.8Z" fill="black"/>
<path d="M46.2667 15.1333C43.0667 17 40 23.4 40 28.3333C40 33.9333 46.2667 40.3333 51.7333 40.3333C53.8667 40.3333 57.0667 39.1333 58.8 37.5333C61.8667 35 61.8667 34.8667 59.0667 36.2C51.0667 40.0667 45.3333 35.8 45.3333 25.8C45.3333 19.4 46.4 17.5333 51.0667 15.9333C53.3333 15.1333 58.6667 19 58.6667 21.5333C58.6667 22.2 55.8667 24.3333 52.5333 26.3333C44.1333 31.2667 46.1333 32.0667 55.6 27.4C62.1333 24.2 63.3333 23.1333 62.9333 20.4667C62.8 18.7333 61.6 16.4667 60.2667 15.5333C57.6 13.4 49.6 13.1333 46.2667 15.1333Z" fill="black"/>
<path d="M102.667 14.3333C102.667 14.7333 104.267 18.8667 106.133 23.4C108.133 27.9333 110.533 33.6667 111.6 36.2L113.6 40.8667L118 33.6667L122.533 26.4667L125.6 33.6667L128.8 40.8667L133.6 33C141.333 19.9333 143.067 16.2 141.6 14.7333C139.6 12.7333 137.333 14.6 137.333 18.0667C137.333 20.8667 132 32.3333 130.667 32.3333C128.933 32.3333 125.6 20.6 126.267 17.2667C126.933 13.9333 126.667 13.5333 124.533 13.9333C122.667 14.2 122 15.5333 122 18.3333C122 20.6 120.533 24.7333 118.8 27.6667L115.6 33L111.067 23.2667C108.533 17.6667 105.733 13.6667 104.667 13.6667C103.6 13.6667 102.667 13.9333 102.667 14.3333Z" fill="black"/>
<path d="M221.6 15.2667C218.533 18.3333 220 21.5333 226.4 26.3333C233.733 32.0667 237.733 38.8667 237.6 45.9333C237.333 58.3333 231.733 65.6667 222.4 65.6667C212.667 65.6667 208.667 61 207.2 47.8C206.533 41.8 205.867 40.3333 203.867 40.3333C201.467 40.3333 201.467 40.2 203.467 52.3333C204.8 60.3333 209.067 67 214.267 69.2667C227.467 74.7333 241.333 62.3333 241.333 44.8667C241.333 35.8 238.8 31.8 229.333 25.6667C222.4 21.1333 220.667 17.1333 225.333 15.9333C226.8 15.5333 229.6 16.6 232.133 18.4667C236.533 21.6667 238.667 21.6667 238.667 18.3333C238.667 14.2 225.2 11.6667 221.6 15.2667Z" fill="black"/>
<path d="M248.933 15.1333C244 18.0666 242.667 24.4667 242.667 45.8C242.667 64.7333 242.533 65.9333 240 66.6C238.533 67 237.333 67.8 237.333 68.4667C237.333 70.7333 241.467 69.6667 244.667 66.3333C247.733 63.4 248 62.0667 248 50.3333C248 38.0667 248.133 37.6667 250.533 39C254.667 41.1333 258.133 40.6 262.533 36.8667C269.333 31.2667 269.333 18.6 262.533 15C259.467 13.2666 252 13.4 248.933 15.1333ZM259.333 18.3333C261.867 20.7333 262.667 23 262.667 27.5333C262.667 34.2 260.133 37.6667 255.333 37.6667C250.267 37.6667 248 34.3333 248 26.6C248 19.2666 248.8 17.1333 252 15.9333C255.333 14.7333 256 14.8666 259.333 18.3333Z" fill="black"/>
<path d="M275.6 15.1333C272.8 16.7333 269.333 23.2666 269.333 27C269.333 34.7333 277.467 41.5333 284.8 39.8C299.067 36.2 297.333 13.5333 282.8 13.6666C280.133 13.6666 276.933 14.3333 275.6 15.1333ZM284.667 15.8C287.467 17 290.667 23.2666 290.667 27.9333C290.667 36.6 282.933 40.6 277.2 34.8666C275.067 32.7333 274.667 30.8666 274.933 25.2666C275.333 19.5333 275.867 18.2 278.667 16.7333C282.667 14.7333 282 14.8666 284.667 15.8Z" fill="black"/>
</svg>
