<svg width="167" height="155" viewBox="0 0 167 155" fill="none" xmlns="http://www.w3.org/2000/svg">
<rect x="1.5" y="1.5" width="164" height="152" rx="25.5" fill="white"/>
<rect x="1.5" y="1.5" width="164" height="152" rx="25.5" stroke="black" stroke-width="3"/>
<rect x="1.5" y="1.5" width="164" height="152" rx="25.5" stroke="black" stroke-opacity="0.2" stroke-width="3"/>
<mask id="path-2-outside-1_12_83" maskUnits="userSpaceOnUse" x="11" y="10" width="147" height="144" fill="black">
<rect fill="white" x="11" y="10" width="147" height="144"/>
<path d="M32.5191 30.5333C32.5191 45.0667 32.9191 49.3333 34.5191 50.6667C36.5191 52.2667 41.8524 51.3333 41.8524 49.3333C41.8524 48.6667 40.9191 48.4 39.8524 48.8C38.1191 49.4667 37.8524 48 37.8524 39.4667V29.3333H45.8524V40.6667C45.8524 51.0667 46.1191 52 48.5191 52C50.9191 52 51.1857 51.0667 51.1857 41.3333C51.1857 31.6 51.4524 30.5333 54.3857 28.6667C56.6524 27.2 58.3857 26.9333 60.7857 27.8667C65.1857 29.4667 65.8524 31.6 65.8524 42.8C65.8524 51.0667 66.1191 52 68.5191 52C70.9191 52 71.1857 51.0667 71.1857 44.6667C71.1857 30.9333 66.3857 24.6667 56.5191 25.6L51.4524 26L50.5191 19.0667C49.9857 14.2667 49.0524 12 47.7191 12C46.3857 12 45.8524 13.7333 45.8524 18.5333C45.8524 24.9333 45.8524 24.9333 41.5857 24.8C37.3191 24.6667 37.3191 24.5333 37.7191 18.2667C37.9857 12.6667 37.7191 12 35.3191 12C32.6524 12 32.5191 12.6667 32.5191 30.5333Z"/>
<path d="M142.186 50V58.6667L138.719 56.5333C131.252 51.6 122.319 55.7333 119.252 65.4667C116.319 75.3333 125.919 84 135.519 80C137.652 79.0667 139.519 77.7333 139.519 76.9333C139.519 76 138.986 76 137.919 77.0667C135.119 79.8667 129.252 78.9333 126.319 75.2C119.519 66.5333 125.919 52.5333 134.052 58.1333C138.186 61.0667 137.519 63.2 131.519 67.2C128.586 69.0667 126.186 71.0667 126.186 71.3333C126.186 72.2667 135.386 68.4 139.252 65.8667C142.186 64 142.186 64 142.186 71.2C142.186 79.0667 144.319 82.1333 148.852 80.6667C152.186 79.6 152.452 77.6 149.252 77.8667C147.252 78 146.852 76.5333 146.452 68.2667L146.052 58.6667H150.852C154.719 58.6667 155.652 58.2667 155.252 56.2667C154.986 54.6667 153.519 54 150.852 54C146.986 54 146.852 53.7333 146.452 47.6C146.186 43.2 145.519 41.3333 144.052 41.3333C142.586 41.3333 142.186 43.3333 142.186 50Z"/>
<path d="M142.506 98.7333C142.506 119.267 143.706 122.733 149.706 119.933C151.572 119.133 153.172 117.267 153.172 116.067C153.039 113.8 153.039 113.8 151.706 115.933C149.039 120.6 147.839 118.2 147.839 108.333V98.3333H151.839C154.906 98.3333 155.839 97.8 155.839 95.6667C155.839 93.5333 155.172 93.1333 151.839 93.8L147.839 94.6V87.8C147.839 81.9333 147.439 81 145.172 81C142.639 81 142.506 81.9333 142.506 98.7333Z"/>
<path d="M35.9191 54.4C28.1857 55.6 28.9857 62.1333 37.3857 68C46.5857 74.2667 49.9191 83.8667 46.7191 94.6667C44.4524 102.267 39.5191 106.667 33.3857 106.667C23.2524 106.667 19.2524 101.867 17.3857 87.8667C16.7191 83.3333 15.9191 81.3333 14.4524 81.3333C11.6524 81.3333 13.1191 94.2667 16.9857 102.267C26.1857 121.333 51.1191 109.733 51.6524 86.1333C51.9191 76.9333 49.7857 73.6 40.1857 67.0667C32.4524 62 30.8524 58.1333 35.6524 56.9333C37.5191 56.4 40.0524 57.3333 42.9857 59.6C46.9857 62.5333 47.6524 62.6667 48.3191 60.6667C48.8524 59.4667 48.5857 57.8667 47.9191 57.2C46.1857 55.4667 39.3857 53.8667 35.9191 54.4Z"/>
<path d="M105.786 54.8C100.719 56.1333 98.0524 58.5333 95.9191 63.7333C92.0524 73.2 99.6524 82.6667 109.519 80.8C113.652 80 118.852 76 115.786 76C114.986 76 113.919 76.5333 113.519 77.3333C112.052 79.7333 106.052 78.6667 102.852 75.3333C100.452 73.0667 99.5191 70.6667 99.5191 66.9333C99.5191 57.6 106.052 53.4667 111.652 59.4667C115.252 63.3333 115.119 63.3333 106.052 68.4C103.786 69.7333 102.186 71.0667 102.586 71.4667C103.919 72.9333 117.519 64.6667 117.919 62.2667C118.452 59.4667 115.119 55.2 111.786 54.4C110.586 54 107.786 54.2667 105.786 54.8Z"/>
<path d="M78.7857 26.8C75.5857 28.6667 72.5191 35.0667 72.5191 40C72.5191 45.6 78.7857 52 84.2524 52C86.3857 52 89.5857 50.8 91.3191 49.2C94.3857 46.6667 94.3857 46.5333 91.5857 47.8667C83.5857 51.7333 77.8524 47.4667 77.8524 37.4667C77.8524 31.0667 78.9191 29.2 83.5857 27.6C85.8524 26.8 91.1857 30.6667 91.1857 33.2C91.1857 33.8667 88.3857 36 85.0524 38C76.6524 42.9333 78.6524 43.7333 88.1191 39.0667C94.6524 35.8667 95.8524 34.8 95.4524 32.1333C95.3191 30.4 94.1191 28.1333 92.7857 27.2C90.1191 25.0667 82.1191 24.8 78.7857 26.8Z"/>
<path d="M54.1857 55.3333C54.1857 55.7333 55.7857 59.8667 57.6524 64.4C59.6524 68.9333 62.0524 74.6667 63.1191 77.2L65.1191 81.8667L69.5191 74.6667L74.0524 67.4667L77.1191 74.6667L80.3191 81.8667L85.1191 74C92.8524 60.9333 94.5857 57.2 93.1191 55.7333C91.1191 53.7333 88.8524 55.6 88.8524 59.0667C88.8524 61.8667 83.5191 73.3333 82.1857 73.3333C80.4524 73.3333 77.1191 61.6 77.7857 58.2667C78.4524 54.9333 78.1857 54.5333 76.0524 54.9333C74.1857 55.2 73.5191 56.5333 73.5191 59.3333C73.5191 61.6 72.0524 65.7333 70.3191 68.6667L67.1191 74L62.5857 64.2667C60.0524 58.6667 57.2524 54.6667 56.1857 54.6667C55.1191 54.6667 54.1857 54.9333 54.1857 55.3333Z"/>
<path d="M68.1058 95.9333C65.0391 99 66.5058 102.2 72.9058 107C80.2391 112.733 84.2391 119.533 84.1058 126.6C83.8391 139 78.2391 146.333 68.9058 146.333C59.1725 146.333 55.1725 141.667 53.7058 128.467C53.0391 122.467 52.3725 121 50.3725 121C47.9725 121 47.9725 120.867 49.9725 133C51.3058 141 55.5725 147.667 60.7725 149.933C73.9725 155.4 87.8391 143 87.8391 125.533C87.8391 116.467 85.3058 112.467 75.8391 106.333C68.9058 101.8 67.1725 97.8 71.8391 96.6C73.3058 96.2 76.1058 97.2667 78.6391 99.1333C83.0391 102.333 85.1725 102.333 85.1725 99C85.1725 94.8667 71.7058 92.3333 68.1058 95.9333Z"/>
<path d="M95.4392 95.8C90.5058 98.7333 89.1725 105.133 89.1725 126.467C89.1725 145.4 89.0392 146.6 86.5058 147.267C85.0392 147.667 83.8392 148.467 83.8392 149.133C83.8392 151.4 87.9725 150.333 91.1725 147C94.2392 144.067 94.5058 142.733 94.5058 131C94.5058 118.733 94.6392 118.333 97.0392 119.667C101.172 121.8 104.639 121.267 109.039 117.533C115.839 111.933 115.839 99.2667 109.039 95.6667C105.973 93.9333 98.5058 94.0667 95.4392 95.8ZM105.839 99C108.372 101.4 109.173 103.667 109.173 108.2C109.173 114.867 106.639 118.333 101.839 118.333C96.7725 118.333 94.5058 115 94.5058 107.267C94.5058 99.9333 95.3058 97.8 98.5058 96.6C101.839 95.4 102.506 95.5333 105.839 99Z"/>
<path d="M122.106 95.8C119.306 97.4 115.839 103.933 115.839 107.667C115.839 115.4 123.972 122.2 131.306 120.467C145.572 116.867 143.839 94.2 129.306 94.3333C126.639 94.3333 123.439 95 122.106 95.8ZM131.172 96.4667C133.972 97.6667 137.172 103.933 137.172 108.6C137.172 117.267 129.439 121.267 123.706 115.533C121.572 113.4 121.172 111.533 121.439 105.933C121.839 100.2 122.372 98.8667 125.172 97.4C129.172 95.4 128.506 95.5333 131.172 96.4667Z"/>
</mask>
<path d="M32.5191 30.5333C32.5191 45.0667 32.9191 49.3333 34.5191 50.6667C36.5191 52.2667 41.8524 51.3333 41.8524 49.3333C41.8524 48.6667 40.9191 48.4 39.8524 48.8C38.1191 49.4667 37.8524 48 37.8524 39.4667V29.3333H45.8524V40.6667C45.8524 51.0667 46.1191 52 48.5191 52C50.9191 52 51.1857 51.0667 51.1857 41.3333C51.1857 31.6 51.4524 30.5333 54.3857 28.6667C56.6524 27.2 58.3857 26.9333 60.7857 27.8667C65.1857 29.4667 65.8524 31.6 65.8524 42.8C65.8524 51.0667 66.1191 52 68.5191 52C70.9191 52 71.1857 51.0667 71.1857 44.6667C71.1857 30.9333 66.3857 24.6667 56.5191 25.6L51.4524 26L50.5191 19.0667C49.9857 14.2667 49.0524 12 47.7191 12C46.3857 12 45.8524 13.7333 45.8524 18.5333C45.8524 24.9333 45.8524 24.9333 41.5857 24.8C37.3191 24.6667 37.3191 24.5333 37.7191 18.2667C37.9857 12.6667 37.7191 12 35.3191 12C32.6524 12 32.5191 12.6667 32.5191 30.5333Z" fill="black"/>
<path d="M142.186 50V58.6667L138.719 56.5333C131.252 51.6 122.319 55.7333 119.252 65.4667C116.319 75.3333 125.919 84 135.519 80C137.652 79.0667 139.519 77.7333 139.519 76.9333C139.519 76 138.986 76 137.919 77.0667C135.119 79.8667 129.252 78.9333 126.319 75.2C119.519 66.5333 125.919 52.5333 134.052 58.1333C138.186 61.0667 137.519 63.2 131.519 67.2C128.586 69.0667 126.186 71.0667 126.186 71.3333C126.186 72.2667 135.386 68.4 139.252 65.8667C142.186 64 142.186 64 142.186 71.2C142.186 79.0667 144.319 82.1333 148.852 80.6667C152.186 79.6 152.452 77.6 149.252 77.8667C147.252 78 146.852 76.5333 146.452 68.2667L146.052 58.6667H150.852C154.719 58.6667 155.652 58.2667 155.252 56.2667C154.986 54.6667 153.519 54 150.852 54C146.986 54 146.852 53.7333 146.452 47.6C146.186 43.2 145.519 41.3333 144.052 41.3333C142.586 41.3333 142.186 43.3333 142.186 50Z" fill="black"/>
<path d="M142.506 98.7333C142.506 119.267 143.706 122.733 149.706 119.933C151.572 119.133 153.172 117.267 153.172 116.067C153.039 113.8 153.039 113.8 151.706 115.933C149.039 120.6 147.839 118.2 147.839 108.333V98.3333H151.839C154.906 98.3333 155.839 97.8 155.839 95.6667C155.839 93.5333 155.172 93.1333 151.839 93.8L147.839 94.6V87.8C147.839 81.9333 147.439 81 145.172 81C142.639 81 142.506 81.9333 142.506 98.7333Z" fill="black"/>
<path d="M35.9191 54.4C28.1857 55.6 28.9857 62.1333 37.3857 68C46.5857 74.2667 49.9191 83.8667 46.7191 94.6667C44.4524 102.267 39.5191 106.667 33.3857 106.667C23.2524 106.667 19.2524 101.867 17.3857 87.8667C16.7191 83.3333 15.9191 81.3333 14.4524 81.3333C11.6524 81.3333 13.1191 94.2667 16.9857 102.267C26.1857 121.333 51.1191 109.733 51.6524 86.1333C51.9191 76.9333 49.7857 73.6 40.1857 67.0667C32.4524 62 30.8524 58.1333 35.6524 56.9333C37.5191 56.4 40.0524 57.3333 42.9857 59.6C46.9857 62.5333 47.6524 62.6667 48.3191 60.6667C48.8524 59.4667 48.5857 57.8667 47.9191 57.2C46.1857 55.4667 39.3857 53.8667 35.9191 54.4Z" fill="black"/>
<path d="M105.786 54.8C100.719 56.1333 98.0524 58.5333 95.9191 63.7333C92.0524 73.2 99.6524 82.6667 109.519 80.8C113.652 80 118.852 76 115.786 76C114.986 76 113.919 76.5333 113.519 77.3333C112.052 79.7333 106.052 78.6667 102.852 75.3333C100.452 73.0667 99.5191 70.6667 99.5191 66.9333C99.5191 57.6 106.052 53.4667 111.652 59.4667C115.252 63.3333 115.119 63.3333 106.052 68.4C103.786 69.7333 102.186 71.0667 102.586 71.4667C103.919 72.9333 117.519 64.6667 117.919 62.2667C118.452 59.4667 115.119 55.2 111.786 54.4C110.586 54 107.786 54.2667 105.786 54.8Z" fill="black"/>
<path d="M78.7857 26.8C75.5857 28.6667 72.5191 35.0667 72.5191 40C72.5191 45.6 78.7857 52 84.2524 52C86.3857 52 89.5857 50.8 91.3191 49.2C94.3857 46.6667 94.3857 46.5333 91.5857 47.8667C83.5857 51.7333 77.8524 47.4667 77.8524 37.4667C77.8524 31.0667 78.9191 29.2 83.5857 27.6C85.8524 26.8 91.1857 30.6667 91.1857 33.2C91.1857 33.8667 88.3857 36 85.0524 38C76.6524 42.9333 78.6524 43.7333 88.1191 39.0667C94.6524 35.8667 95.8524 34.8 95.4524 32.1333C95.3191 30.4 94.1191 28.1333 92.7857 27.2C90.1191 25.0667 82.1191 24.8 78.7857 26.8Z" fill="black"/>
<path d="M54.1857 55.3333C54.1857 55.7333 55.7857 59.8667 57.6524 64.4C59.6524 68.9333 62.0524 74.6667 63.1191 77.2L65.1191 81.8667L69.5191 74.6667L74.0524 67.4667L77.1191 74.6667L80.3191 81.8667L85.1191 74C92.8524 60.9333 94.5857 57.2 93.1191 55.7333C91.1191 53.7333 88.8524 55.6 88.8524 59.0667C88.8524 61.8667 83.5191 73.3333 82.1857 73.3333C80.4524 73.3333 77.1191 61.6 77.7857 58.2667C78.4524 54.9333 78.1857 54.5333 76.0524 54.9333C74.1857 55.2 73.5191 56.5333 73.5191 59.3333C73.5191 61.6 72.0524 65.7333 70.3191 68.6667L67.1191 74L62.5857 64.2667C60.0524 58.6667 57.2524 54.6667 56.1857 54.6667C55.1191 54.6667 54.1857 54.9333 54.1857 55.3333Z" fill="black"/>
<path d="M68.1058 95.9333C65.0391 99 66.5058 102.2 72.9058 107C80.2391 112.733 84.2391 119.533 84.1058 126.6C83.8391 139 78.2391 146.333 68.9058 146.333C59.1725 146.333 55.1725 141.667 53.7058 128.467C53.0391 122.467 52.3725 121 50.3725 121C47.9725 121 47.9725 120.867 49.9725 133C51.3058 141 55.5725 147.667 60.7725 149.933C73.9725 155.4 87.8391 143 87.8391 125.533C87.8391 116.467 85.3058 112.467 75.8391 106.333C68.9058 101.8 67.1725 97.8 71.8391 96.6C73.3058 96.2 76.1058 97.2667 78.6391 99.1333C83.0391 102.333 85.1725 102.333 85.1725 99C85.1725 94.8667 71.7058 92.3333 68.1058 95.9333Z" fill="black"/>
<path d="M95.4392 95.8C90.5058 98.7333 89.1725 105.133 89.1725 126.467C89.1725 145.4 89.0392 146.6 86.5058 147.267C85.0392 147.667 83.8392 148.467 83.8392 149.133C83.8392 151.4 87.9725 150.333 91.1725 147C94.2392 144.067 94.5058 142.733 94.5058 131C94.5058 118.733 94.6392 118.333 97.0392 119.667C101.172 121.8 104.639 121.267 109.039 117.533C115.839 111.933 115.839 99.2667 109.039 95.6667C105.973 93.9333 98.5058 94.0667 95.4392 95.8ZM105.839 99C108.372 101.4 109.173 103.667 109.173 108.2C109.173 114.867 106.639 118.333 101.839 118.333C96.7725 118.333 94.5058 115 94.5058 107.267C94.5058 99.9333 95.3058 97.8 98.5058 96.6C101.839 95.4 102.506 95.5333 105.839 99Z" fill="black"/>
<path d="M122.106 95.8C119.306 97.4 115.839 103.933 115.839 107.667C115.839 115.4 123.972 122.2 131.306 120.467C145.572 116.867 143.839 94.2 129.306 94.3333C126.639 94.3333 123.439 95 122.106 95.8ZM131.172 96.4667C133.972 97.6667 137.172 103.933 137.172 108.6C137.172 117.267 129.439 121.267 123.706 115.533C121.572 113.4 121.172 111.533 121.439 105.933C121.839 100.2 122.372 98.8667 125.172 97.4C129.172 95.4 128.506 95.5333 131.172 96.4667Z" fill="black"/>
<path d="M32.5191 30.5333C32.5191 45.0667 32.9191 49.3333 34.5191 50.6667C36.5191 52.2667 41.8524 51.3333 41.8524 49.3333C41.8524 48.6667 40.9191 48.4 39.8524 48.8C38.1191 49.4667 37.8524 48 37.8524 39.4667V29.3333H45.8524V40.6667C45.8524 51.0667 46.1191 52 48.5191 52C50.9191 52 51.1857 51.0667 51.1857 41.3333C51.1857 31.6 51.4524 30.5333 54.3857 28.6667C56.6524 27.2 58.3857 26.9333 60.7857 27.8667C65.1857 29.4667 65.8524 31.6 65.8524 42.8C65.8524 51.0667 66.1191 52 68.5191 52C70.9191 52 71.1857 51.0667 71.1857 44.6667C71.1857 30.9333 66.3857 24.6667 56.5191 25.6L51.4524 26L50.5191 19.0667C49.9857 14.2667 49.0524 12 47.7191 12C46.3857 12 45.8524 13.7333 45.8524 18.5333C45.8524 24.9333 45.8524 24.9333 41.5857 24.8C37.3191 24.6667 37.3191 24.5333 37.7191 18.2667C37.9857 12.6667 37.7191 12 35.3191 12C32.6524 12 32.5191 12.6667 32.5191 30.5333Z" stroke="white" stroke-width="4" mask="url(#path-2-outside-1_12_83)"/>
<path d="M142.186 50V58.6667L138.719 56.5333C131.252 51.6 122.319 55.7333 119.252 65.4667C116.319 75.3333 125.919 84 135.519 80C137.652 79.0667 139.519 77.7333 139.519 76.9333C139.519 76 138.986 76 137.919 77.0667C135.119 79.8667 129.252 78.9333 126.319 75.2C119.519 66.5333 125.919 52.5333 134.052 58.1333C138.186 61.0667 137.519 63.2 131.519 67.2C128.586 69.0667 126.186 71.0667 126.186 71.3333C126.186 72.2667 135.386 68.4 139.252 65.8667C142.186 64 142.186 64 142.186 71.2C142.186 79.0667 144.319 82.1333 148.852 80.6667C152.186 79.6 152.452 77.6 149.252 77.8667C147.252 78 146.852 76.5333 146.452 68.2667L146.052 58.6667H150.852C154.719 58.6667 155.652 58.2667 155.252 56.2667C154.986 54.6667 153.519 54 150.852 54C146.986 54 146.852 53.7333 146.452 47.6C146.186 43.2 145.519 41.3333 144.052 41.3333C142.586 41.3333 142.186 43.3333 142.186 50Z" stroke="white" stroke-width="4" mask="url(#path-2-outside-1_12_83)"/>
<path d="M142.506 98.7333C142.506 119.267 143.706 122.733 149.706 119.933C151.572 119.133 153.172 117.267 153.172 116.067C153.039 113.8 153.039 113.8 151.706 115.933C149.039 120.6 147.839 118.2 147.839 108.333V98.3333H151.839C154.906 98.3333 155.839 97.8 155.839 95.6667C155.839 93.5333 155.172 93.1333 151.839 93.8L147.839 94.6V87.8C147.839 81.9333 147.439 81 145.172 81C142.639 81 142.506 81.9333 142.506 98.7333Z" stroke="white" stroke-width="4" mask="url(#path-2-outside-1_12_83)"/>
<path d="M35.9191 54.4C28.1857 55.6 28.9857 62.1333 37.3857 68C46.5857 74.2667 49.9191 83.8667 46.7191 94.6667C44.4524 102.267 39.5191 106.667 33.3857 106.667C23.2524 106.667 19.2524 101.867 17.3857 87.8667C16.7191 83.3333 15.9191 81.3333 14.4524 81.3333C11.6524 81.3333 13.1191 94.2667 16.9857 102.267C26.1857 121.333 51.1191 109.733 51.6524 86.1333C51.9191 76.9333 49.7857 73.6 40.1857 67.0667C32.4524 62 30.8524 58.1333 35.6524 56.9333C37.5191 56.4 40.0524 57.3333 42.9857 59.6C46.9857 62.5333 47.6524 62.6667 48.3191 60.6667C48.8524 59.4667 48.5857 57.8667 47.9191 57.2C46.1857 55.4667 39.3857 53.8667 35.9191 54.4Z" stroke="white" stroke-width="4" mask="url(#path-2-outside-1_12_83)"/>
<path d="M105.786 54.8C100.719 56.1333 98.0524 58.5333 95.9191 63.7333C92.0524 73.2 99.6524 82.6667 109.519 80.8C113.652 80 118.852 76 115.786 76C114.986 76 113.919 76.5333 113.519 77.3333C112.052 79.7333 106.052 78.6667 102.852 75.3333C100.452 73.0667 99.5191 70.6667 99.5191 66.9333C99.5191 57.6 106.052 53.4667 111.652 59.4667C115.252 63.3333 115.119 63.3333 106.052 68.4C103.786 69.7333 102.186 71.0667 102.586 71.4667C103.919 72.9333 117.519 64.6667 117.919 62.2667C118.452 59.4667 115.119 55.2 111.786 54.4C110.586 54 107.786 54.2667 105.786 54.8Z" stroke="white" stroke-width="4" mask="url(#path-2-outside-1_12_83)"/>
<path d="M78.7857 26.8C75.5857 28.6667 72.5191 35.0667 72.5191 40C72.5191 45.6 78.7857 52 84.2524 52C86.3857 52 89.5857 50.8 91.3191 49.2C94.3857 46.6667 94.3857 46.5333 91.5857 47.8667C83.5857 51.7333 77.8524 47.4667 77.8524 37.4667C77.8524 31.0667 78.9191 29.2 83.5857 27.6C85.8524 26.8 91.1857 30.6667 91.1857 33.2C91.1857 33.8667 88.3857 36 85.0524 38C76.6524 42.9333 78.6524 43.7333 88.1191 39.0667C94.6524 35.8667 95.8524 34.8 95.4524 32.1333C95.3191 30.4 94.1191 28.1333 92.7857 27.2C90.1191 25.0667 82.1191 24.8 78.7857 26.8Z" stroke="white" stroke-width="4" mask="url(#path-2-outside-1_12_83)"/>
<path d="M54.1857 55.3333C54.1857 55.7333 55.7857 59.8667 57.6524 64.4C59.6524 68.9333 62.0524 74.6667 63.1191 77.2L65.1191 81.8667L69.5191 74.6667L74.0524 67.4667L77.1191 74.6667L80.3191 81.8667L85.1191 74C92.8524 60.9333 94.5857 57.2 93.1191 55.7333C91.1191 53.7333 88.8524 55.6 88.8524 59.0667C88.8524 61.8667 83.5191 73.3333 82.1857 73.3333C80.4524 73.3333 77.1191 61.6 77.7857 58.2667C78.4524 54.9333 78.1857 54.5333 76.0524 54.9333C74.1857 55.2 73.5191 56.5333 73.5191 59.3333C73.5191 61.6 72.0524 65.7333 70.3191 68.6667L67.1191 74L62.5857 64.2667C60.0524 58.6667 57.2524 54.6667 56.1857 54.6667C55.1191 54.6667 54.1857 54.9333 54.1857 55.3333Z" stroke="white" stroke-width="4" mask="url(#path-2-outside-1_12_83)"/>
<path d="M68.1058 95.9333C65.0391 99 66.5058 102.2 72.9058 107C80.2391 112.733 84.2391 119.533 84.1058 126.6C83.8391 139 78.2391 146.333 68.9058 146.333C59.1725 146.333 55.1725 141.667 53.7058 128.467C53.0391 122.467 52.3725 121 50.3725 121C47.9725 121 47.9725 120.867 49.9725 133C51.3058 141 55.5725 147.667 60.7725 149.933C73.9725 155.4 87.8391 143 87.8391 125.533C87.8391 116.467 85.3058 112.467 75.8391 106.333C68.9058 101.8 67.1725 97.8 71.8391 96.6C73.3058 96.2 76.1058 97.2667 78.6391 99.1333C83.0391 102.333 85.1725 102.333 85.1725 99C85.1725 94.8667 71.7058 92.3333 68.1058 95.9333Z" stroke="white" stroke-width="4" mask="url(#path-2-outside-1_12_83)"/>
<path d="M95.4392 95.8C90.5058 98.7333 89.1725 105.133 89.1725 126.467C89.1725 145.4 89.0392 146.6 86.5058 147.267C85.0392 147.667 83.8392 148.467 83.8392 149.133C83.8392 151.4 87.9725 150.333 91.1725 147C94.2392 144.067 94.5058 142.733 94.5058 131C94.5058 118.733 94.6392 118.333 97.0392 119.667C101.172 121.8 104.639 121.267 109.039 117.533C115.839 111.933 115.839 99.2667 109.039 95.6667C105.973 93.9333 98.5058 94.0667 95.4392 95.8ZM105.839 99C108.372 101.4 109.173 103.667 109.173 108.2C109.173 114.867 106.639 118.333 101.839 118.333C96.7725 118.333 94.5058 115 94.5058 107.267C94.5058 99.9333 95.3058 97.8 98.5058 96.6C101.839 95.4 102.506 95.5333 105.839 99Z" stroke="white" stroke-width="4" mask="url(#path-2-outside-1_12_83)"/>
<path d="M122.106 95.8C119.306 97.4 115.839 103.933 115.839 107.667C115.839 115.4 123.972 122.2 131.306 120.467C145.572 116.867 143.839 94.2 129.306 94.3333C126.639 94.3333 123.439 95 122.106 95.8ZM131.172 96.4667C133.972 97.6667 137.172 103.933 137.172 108.6C137.172 117.267 129.439 121.267 123.706 115.533C121.572 113.4 121.172 111.533 121.439 105.933C121.839 100.2 122.372 98.8667 125.172 97.4C129.172 95.4 128.506 95.5333 131.172 96.4667Z" stroke="white" stroke-width="4" mask="url(#path-2-outside-1_12_83)"/>
</svg>
