<svg width="118" height="101" viewBox="0 0 118 101" fill="none" xmlns="http://www.w3.org/2000/svg">
<rect x="5" width="109" height="101" rx="50.5" fill="#390834"/>
<path d="M22.3086 47.4453C21.3867 47.4453 20.457 47.332 19.5195 47.1055C18.5898 46.8789 17.7734 46.5703 17.0703 46.1797L16.0625 47H15.0664L16.3086 40.9883H17.3164C17.4102 41.5742 17.582 42.1836 17.832 42.8164C18.082 43.4414 18.4062 44 18.8047 44.4922C19.1953 45 19.6914 45.4219 20.293 45.7578C20.8945 46.0938 21.582 46.2617 22.3555 46.2617C23.4883 46.2617 24.3945 45.9883 25.0742 45.4414C25.7539 44.8867 26.0938 44.1602 26.0938 43.2617C26.0938 42.6836 25.8984 42.1758 25.5078 41.7383C25.125 41.3008 24.5039 40.9258 23.6445 40.6133C23.0977 40.418 22.5664 40.2305 22.0508 40.0508C21.543 39.8633 21.0586 39.6719 20.5977 39.4766C19.6836 39.0938 18.9961 38.5508 18.5352 37.8477C18.0742 37.1367 17.8438 36.3828 17.8438 35.5859C17.8438 34.8516 18.0117 34.1484 18.3477 33.4766C18.6836 32.7969 19.168 32.1914 19.8008 31.6602C20.418 31.1367 21.1797 30.7188 22.0859 30.4062C23 30.0859 24 29.9258 25.0859 29.9258C25.9922 29.9258 26.8906 30.0586 27.7812 30.3242C28.6719 30.582 29.3281 30.832 29.75 31.0742L30.6289 30.3711H31.6484L30.4297 36.043H29.4219C29.3203 35.3789 29.1719 34.7539 28.9766 34.168C28.7891 33.582 28.5273 33.0547 28.1914 32.5859C27.8633 32.1328 27.4531 31.7734 26.9609 31.5078C26.4766 31.2344 25.8906 31.0977 25.2031 31.0977C24.25 31.0977 23.4531 31.3633 22.8125 31.8945C22.1797 32.4258 21.8633 33.0938 21.8633 33.8984C21.8633 34.4609 22.0547 34.9531 22.4375 35.375C22.8203 35.7969 23.4258 36.1641 24.2539 36.4766C24.7383 36.6562 25.2461 36.8438 25.7773 37.0391C26.3086 37.2266 26.8164 37.4219 27.3008 37.625C28.207 38 28.9219 38.5117 29.4453 39.1602C29.9688 39.8008 30.2305 40.5625 30.2305 41.4453C30.2305 42.2812 30.0391 43.0664 29.6562 43.8008C29.2734 44.5352 28.7383 45.168 28.0508 45.6992C27.3242 46.2617 26.4766 46.6953 25.5078 47C24.5391 47.2969 23.4727 47.4453 22.3086 47.4453ZM56.1289 38.0234C56.1289 39.1641 55.9414 40.2969 55.5664 41.4219C55.1914 42.5391 54.668 43.5273 53.9961 44.3867C53.3008 45.2773 52.4727 46 51.5117 46.5547C50.5508 47.1016 49.4531 47.375 48.2188 47.375C47.0781 47.375 46.1523 47.1523 45.4414 46.707C44.7383 46.2617 44.2578 45.6211 44 44.7852C43.1641 45.6992 42.3438 46.3555 41.5391 46.7539C40.7344 47.1445 39.8516 47.3398 38.8906 47.3398C37.9844 47.3398 37.2695 47.0586 36.7461 46.4961C36.2227 45.9336 35.9609 45.2266 35.9609 44.375C35.9609 44.0625 35.9922 43.7695 36.0547 43.4961C36.1172 43.2148 36.1914 42.9102 36.2773 42.582L37.0742 39.8047C37.1289 39.5859 37.1914 39.2891 37.2617 38.9141C37.3398 38.5312 37.3789 38.25 37.3789 38.0703C37.3789 37.6562 37.2891 37.3594 37.1094 37.1797C36.9375 36.9922 36.5977 36.8984 36.0898 36.8984C35.8398 36.8984 35.582 36.9375 35.3164 37.0156C35.0586 37.0938 34.8359 37.168 34.6484 37.2383L34.9062 36.1836C35.5391 35.9258 36.1445 35.707 36.7227 35.5273C37.3008 35.3398 37.8477 35.2461 38.3633 35.2461C39.293 35.2461 40.0078 35.4805 40.5078 35.9492C41.0156 36.4102 41.2695 36.9961 41.2695 37.707C41.2695 37.9648 41.2305 38.3359 41.1523 38.8203C41.0742 39.2969 40.9883 39.6836 40.8945 39.9805L40.2148 42.2539C40.1367 42.4961 40.0664 42.8008 40.0039 43.168C39.9492 43.5273 39.9219 43.7852 39.9219 43.9414C39.9219 44.3867 40.043 44.7383 40.2852 44.9961C40.5352 45.2461 40.8242 45.3711 41.1523 45.3711C41.2539 45.3711 41.4023 45.3594 41.5977 45.3359C41.793 45.3047 41.9961 45.2383 42.207 45.1367C42.4258 45.0352 42.6914 44.875 43.0039 44.6562C43.3242 44.4297 43.6328 44.1484 43.9297 43.8125C43.9297 43.6719 43.9453 43.4688 43.9766 43.2031C44.0156 42.9297 44.0703 42.6055 44.1406 42.2305L45.6875 35.4453L49.4258 35.2812L49.5664 35.4453L48.0195 42.1602C47.9961 42.2539 47.9609 42.4531 47.9141 42.7578C47.875 43.0547 47.8555 43.3633 47.8555 43.6836C47.8555 44.3555 48.0156 44.8516 48.3359 45.1719C48.6641 45.4922 49.1445 45.6523 49.7773 45.6523C50.8398 45.6523 51.7539 45.2578 52.5195 44.4688C53.293 43.6719 53.6797 42.6094 53.6797 41.2812C53.6797 41.1484 53.6719 41.0039 53.6562 40.8477C53.6406 40.6914 53.6094 40.5156 53.5625 40.3203C53.4766 40.1406 53.3164 39.957 53.082 39.7695C52.8477 39.582 52.6289 39.3906 52.4258 39.1953C52.1992 38.9688 52 38.6953 51.8281 38.375C51.6562 38.0469 51.5703 37.6484 51.5703 37.1797C51.5703 36.7891 51.6445 36.4609 51.793 36.1953C51.9492 35.9297 52.1484 35.7109 52.3906 35.5391C52.5703 35.4062 52.7969 35.3008 53.0703 35.2227C53.3438 35.1445 53.5859 35.1055 53.7969 35.1055C54.5469 35.1055 55.1211 35.3711 55.5195 35.9023C55.9258 36.4336 56.1289 37.1406 56.1289 38.0234ZM66.0547 47.3867C65.1172 47.3867 64.293 47.2578 63.582 47C62.8789 46.75 62.2969 46.3984 61.8359 45.9453C61.3828 45.4922 61.043 44.9648 60.8164 44.3633C60.5898 43.7617 60.4766 43.0977 60.4766 42.3711C60.4766 41.4492 60.6484 40.5547 60.9922 39.6875C61.3359 38.8203 61.8477 38.0391 62.5273 37.3438C63.168 36.6797 63.9805 36.1406 64.9648 35.7266C65.9492 35.3125 67.0352 35.1055 68.2227 35.1055C69.6211 35.1055 70.6836 35.3281 71.4102 35.7734C72.1445 36.2188 72.5117 36.8867 72.5117 37.7773C72.5117 38.6289 72.1953 39.3633 71.5625 39.9805C70.9297 40.5898 70.0703 41.043 68.9844 41.3398C68.125 41.5977 67.3906 41.7812 66.7812 41.8906C66.1797 42 65.4414 42.1016 64.5664 42.1953C64.582 42.5391 64.6289 42.9258 64.707 43.3555C64.7852 43.7852 64.9023 44.1523 65.0586 44.457C65.2461 44.8086 65.5117 45.0898 65.8555 45.3008C66.1992 45.5039 66.6367 45.6055 67.168 45.6055C68.0898 45.6055 68.8711 45.4297 69.5117 45.0781C70.1602 44.7188 70.7773 44.1523 71.3633 43.3789L72.2188 44.0938C71.5156 45.0938 70.6133 45.8945 69.5117 46.4961C68.418 47.0898 67.2656 47.3867 66.0547 47.3867ZM68.7031 38.1055C68.7031 37.4414 68.582 36.9336 68.3398 36.582C68.0977 36.2227 67.7617 36.043 67.332 36.043C66.7305 36.043 66.1602 36.5352 65.6211 37.5195C65.0898 38.4961 64.75 39.7344 64.6016 41.2344C65.0625 41.1797 65.5195 41.1094 65.9727 41.0234C66.4258 40.9375 66.7852 40.8359 67.0508 40.7188C67.6367 40.4609 68.0586 40.1289 68.3164 39.7227C68.5742 39.3164 68.7031 38.7773 68.7031 38.1055ZM82.4375 47.3867C81.5 47.3867 80.6758 47.2578 79.9648 47C79.2617 46.75 78.6797 46.3984 78.2188 45.9453C77.7656 45.4922 77.4258 44.9648 77.1992 44.3633C76.9727 43.7617 76.8594 43.0977 76.8594 42.3711C76.8594 41.4492 77.0312 40.5547 77.375 39.6875C77.7188 38.8203 78.2305 38.0391 78.9102 37.3438C79.5508 36.6797 80.3633 36.1406 81.3477 35.7266C82.332 35.3125 83.418 35.1055 84.6055 35.1055C86.0039 35.1055 87.0664 35.3281 87.793 35.7734C88.5273 36.2188 88.8945 36.8867 88.8945 37.7773C88.8945 38.6289 88.5781 39.3633 87.9453 39.9805C87.3125 40.5898 86.4531 41.043 85.3672 41.3398C84.5078 41.5977 83.7734 41.7812 83.1641 41.8906C82.5625 42 81.8242 42.1016 80.9492 42.1953C80.9648 42.5391 81.0117 42.9258 81.0898 43.3555C81.168 43.7852 81.2852 44.1523 81.4414 44.457C81.6289 44.8086 81.8945 45.0898 82.2383 45.3008C82.582 45.5039 83.0195 45.6055 83.5508 45.6055C84.4727 45.6055 85.2539 45.4297 85.8945 45.0781C86.543 44.7188 87.1602 44.1523 87.7461 43.3789L88.6016 44.0938C87.8984 45.0938 86.9961 45.8945 85.8945 46.4961C84.8008 47.0898 83.6484 47.3867 82.4375 47.3867ZM85.0859 38.1055C85.0859 37.4414 84.9648 36.9336 84.7227 36.582C84.4805 36.2227 84.1445 36.043 83.7148 36.043C83.1133 36.043 82.543 36.5352 82.0039 37.5195C81.4727 38.4961 81.1328 39.7344 80.9844 41.2344C81.4453 41.1797 81.9023 41.1094 82.3555 41.0234C82.8086 40.9375 83.168 40.8359 83.4336 40.7188C84.0195 40.4609 84.4414 40.1289 84.6992 39.7227C84.957 39.3164 85.0859 38.7773 85.0859 38.1055ZM97.2031 47.3047C96.2656 47.3047 95.5156 47.0781 94.9531 46.625C94.3906 46.1641 94.1094 45.582 94.1094 44.8789C94.1094 44.5898 94.1289 44.3164 94.168 44.0586C94.207 43.8008 94.2695 43.4688 94.3555 43.0625L95.8086 36.8281H93.6641L93.9453 35.6211H96.1367L96.9805 32.0703H100.777L99.957 35.6211H103.133L102.852 36.8281H99.6875L98.2578 43.0625C98.2031 43.2812 98.1484 43.5469 98.0938 43.8594C98.0469 44.1719 98.0234 44.375 98.0234 44.4688C98.0234 44.9141 98.1445 45.2227 98.3867 45.3945C98.6367 45.5664 99.0156 45.6523 99.5234 45.6523C99.7656 45.6523 100.098 45.6055 100.52 45.5117C100.949 45.418 101.25 45.3398 101.422 45.2773L101.164 46.332C100.477 46.6367 99.7852 46.875 99.0898 47.0469C98.4023 47.2188 97.7734 47.3047 97.2031 47.3047ZM24.4048 72.4639C23.4445 72.4639 22.4761 72.3459 21.4995 72.1099C20.5311 71.8739 19.6807 71.5524 18.9482 71.1455L17.8984 72H16.8608L18.1548 65.7378H19.2046C19.3022 66.3481 19.4813 66.9829 19.7417 67.6421C20.0021 68.2931 20.3398 68.875 20.7549 69.3877C21.1618 69.9167 21.6785 70.3561 22.3052 70.7061C22.9318 71.056 23.6479 71.231 24.4536 71.231C25.6336 71.231 26.5776 70.9461 27.2856 70.3765C27.9937 69.7987 28.3477 69.0418 28.3477 68.106C28.3477 67.5037 28.1442 66.9748 27.7373 66.519C27.3385 66.0633 26.6916 65.6727 25.7964 65.3472C25.2267 65.1437 24.6733 64.9484 24.1362 64.7612C23.6073 64.5659 23.1027 64.3665 22.6226 64.1631C21.6704 63.7643 20.9543 63.1987 20.4741 62.4663C19.994 61.7257 19.7539 60.9404 19.7539 60.1104C19.7539 59.3454 19.9289 58.613 20.2788 57.9131C20.6287 57.2051 21.1333 56.5744 21.7925 56.021C22.4354 55.4757 23.2288 55.0404 24.1729 54.7148C25.125 54.3812 26.1667 54.2144 27.2979 54.2144C28.2419 54.2144 29.1777 54.3527 30.1055 54.6294C31.0332 54.8979 31.7168 55.1584 32.1562 55.4106L33.0718 54.6782H34.1338L32.8643 60.5864H31.8145C31.7087 59.8947 31.554 59.2437 31.3506 58.6333C31.1553 58.0229 30.8826 57.4736 30.5327 56.9854C30.1909 56.5133 29.7637 56.139 29.251 55.8623C28.7464 55.5775 28.1361 55.4351 27.4199 55.4351C26.4271 55.4351 25.597 55.7118 24.9297 56.2651C24.2705 56.8185 23.9409 57.5143 23.9409 58.3525C23.9409 58.9385 24.1403 59.4512 24.5391 59.8906C24.9378 60.3301 25.5685 60.7126 26.4312 61.0381C26.9357 61.2253 27.4647 61.4206 28.0181 61.624C28.5715 61.8193 29.1004 62.0228 29.605 62.2344C30.549 62.625 31.2936 63.158 31.8389 63.8335C32.3841 64.5008 32.6567 65.2943 32.6567 66.2139C32.6567 67.0846 32.4574 67.9025 32.0586 68.6675C31.6598 69.4325 31.1024 70.0916 30.3862 70.645C29.6294 71.231 28.7464 71.6826 27.7373 72C26.7282 72.3092 25.6174 72.4639 24.4048 72.4639ZM57.4902 64.2852C57.4902 65.3757 57.2949 66.4173 56.9043 67.4102C56.5218 68.3949 55.9969 69.2493 55.3296 69.9736C54.6379 70.7223 53.8607 71.3001 52.998 71.707C52.1354 72.1139 51.1833 72.3174 50.1416 72.3174C49.3604 72.3174 48.7297 72.2401 48.2495 72.0854C47.7775 71.939 47.3665 71.7274 47.0166 71.4507L46.272 74.6978C46.2476 74.7954 46.2231 74.9093 46.1987 75.0396C46.1743 75.1779 46.1621 75.2756 46.1621 75.3325C46.1621 75.5197 46.2028 75.6906 46.2842 75.8452C46.3656 75.9998 46.4876 76.1138 46.6504 76.187C46.8294 76.2684 47.1183 76.3457 47.5171 76.4189C47.9159 76.5003 48.2454 76.5492 48.5059 76.5654L48.3105 77.4199H39.4971L39.6924 76.5654C39.904 76.5492 40.1685 76.5166 40.4858 76.4678C40.8032 76.4271 41.0433 76.3823 41.2061 76.3335C41.4827 76.244 41.6943 76.1016 41.8408 75.9062C41.9873 75.7191 42.0931 75.4627 42.1582 75.1372L44.5752 64.4927C44.624 64.2567 44.6851 63.9556 44.7583 63.5894C44.8397 63.2231 44.8804 62.922 44.8804 62.686C44.8804 62.2547 44.7909 61.9455 44.6118 61.7583C44.4328 61.563 44.0788 61.4653 43.5498 61.4653C43.3057 61.4653 43.0412 61.506 42.7563 61.5874C42.4715 61.6688 42.2355 61.7461 42.0483 61.8193L42.3169 60.7207C42.9761 60.4521 43.6068 60.2243 44.209 60.0371C44.8112 59.8418 45.3809 59.7441 45.918 59.7441C46.3656 59.7441 46.7603 59.7889 47.1021 59.8784C47.4438 59.9598 47.745 60.0941 48.0054 60.2812C48.2251 60.4359 48.4041 60.623 48.5425 60.8428C48.689 61.0625 48.811 61.2863 48.9087 61.5142H49.0063C49.755 60.8631 50.4834 60.383 51.1914 60.0737C51.8994 59.7645 52.5789 59.6099 53.23 59.6099C54.646 59.6099 55.708 60.029 56.416 60.8672C57.1322 61.6973 57.4902 62.8366 57.4902 64.2852ZM52.0581 69.0947C52.408 68.3867 52.6725 67.6421 52.8516 66.8608C53.0306 66.0796 53.1201 65.2048 53.1201 64.2363C53.1201 63.8376 53.0916 63.4714 53.0347 63.1377C52.9777 62.7959 52.876 62.5029 52.7295 62.2588C52.583 62.0065 52.3836 61.8112 52.1313 61.6729C51.8872 61.5345 51.578 61.4653 51.2036 61.4653C50.7723 61.4653 50.3491 61.5996 49.9341 61.8682C49.519 62.1367 49.2139 62.389 49.0186 62.625L47.5049 69.3267C47.5049 69.8882 47.6676 70.3561 47.9932 70.7305C48.3187 71.0967 48.7866 71.2798 49.397 71.2798C49.9015 71.2798 50.3857 71.0845 50.8496 70.6938C51.3216 70.3032 51.7244 69.7702 52.0581 69.0947ZM81.3716 64.688C81.3716 65.7134 81.1763 66.694 80.7856 67.6299C80.395 68.5658 79.8416 69.3796 79.1255 70.0713C78.3524 70.8118 77.445 71.3856 76.4033 71.7925C75.3698 72.1912 74.2061 72.3906 72.9121 72.3906C71.1787 72.3906 69.779 71.9308 68.7129 71.0112C67.6468 70.0835 67.1138 68.8221 67.1138 67.2271C67.1138 66.1447 67.3132 65.1396 67.7119 64.2119C68.1188 63.2842 68.6844 62.4744 69.4087 61.7827C70.1248 61.1073 71.0037 60.5742 72.0454 60.1836C73.0871 59.7848 74.2142 59.5854 75.4268 59.5854C77.266 59.5854 78.7145 60.0371 79.7725 60.9404C80.8385 61.8356 81.3716 63.0848 81.3716 64.688ZM77.0747 63.3086C77.0747 62.3564 76.9119 61.6566 76.5864 61.209C76.269 60.7614 75.8052 60.5376 75.1948 60.5376C74.5682 60.5376 73.9945 60.7899 73.4736 61.2944C72.9528 61.7909 72.5296 62.5233 72.2041 63.4917C71.9193 64.2974 71.7158 65.1722 71.5938 66.1162C71.4717 67.0521 71.4106 67.8903 71.4106 68.6309C71.4106 69.6156 71.5734 70.3317 71.8989 70.7793C72.2244 71.2188 72.6965 71.4385 73.3149 71.4385C73.9823 71.4385 74.5601 71.1659 75.0483 70.6206C75.5366 70.0754 75.9232 69.404 76.208 68.6064C76.4928 67.8252 76.7085 66.9626 76.855 66.0186C77.0015 65.0664 77.0747 64.1631 77.0747 63.3086ZM95.1699 72.3174C94.1934 72.3174 93.4121 72.0814 92.8262 71.6094C92.2402 71.1292 91.9473 70.5229 91.9473 69.7905C91.9473 69.4894 91.9676 69.2046 92.0083 68.936C92.049 68.6675 92.1141 68.3216 92.2036 67.8984L93.7173 61.4043H91.4834L91.7764 60.147H94.0591L94.938 56.4482H98.8931L98.0386 60.147H101.347L101.054 61.4043H97.7578L96.2686 67.8984C96.2116 68.1263 96.1546 68.403 96.0977 68.7285C96.0488 69.054 96.0244 69.2656 96.0244 69.3633C96.0244 69.8271 96.1506 70.1486 96.4028 70.3276C96.6632 70.5067 97.0579 70.5962 97.5869 70.5962C97.8392 70.5962 98.1851 70.5474 98.6245 70.4497C99.0721 70.3521 99.3854 70.2707 99.5645 70.2056L99.2959 71.3042C98.5798 71.6216 97.8595 71.8698 97.1353 72.0488C96.4191 72.2279 95.764 72.3174 95.1699 72.3174Z" fill="white"/>
</svg>
