<svg width="143" height="140" viewBox="0 0 143 140" fill="none" xmlns="http://www.w3.org/2000/svg">
<path d="M19.5191 18.5333C19.5191 33.0667 19.9191 37.3333 21.5191 38.6667C23.5191 40.2667 28.8524 39.3333 28.8524 37.3333C28.8524 36.6667 27.9191 36.4 26.8524 36.8C25.1191 37.4667 24.8524 36 24.8524 27.4667V17.3333H28.8524H32.8524V28.6667C32.8524 39.0667 33.1191 40 35.5191 40C37.9191 40 38.1857 39.0667 38.1857 29.3333C38.1857 19.6 38.4524 18.5333 41.3857 16.6667C43.6524 15.2 45.3857 14.9333 47.7857 15.8667C52.1857 17.4667 52.8524 19.6 52.8524 30.8C52.8524 39.0667 53.1191 40 55.5191 40C57.9191 40 58.1857 39.0667 58.1857 32.6667C58.1857 18.9333 53.3857 12.6667 43.5191 13.6L38.4524 14L37.5191 7.06666C36.9857 2.26666 36.0524 -2.08616e-06 34.7191 -2.08616e-06C33.3857 -2.08616e-06 32.8524 1.73333 32.8524 6.53333C32.8524 12.9333 32.8524 12.9333 28.5857 12.8C24.3191 12.6667 24.3191 12.5333 24.7191 6.26666C24.9857 0.666665 24.7191 -2.08616e-06 22.3191 -2.08616e-06C19.6524 -2.08616e-06 19.5191 0.666665 19.5191 18.5333Z" fill="black"/>
<path d="M129.186 38V46.6667L125.719 44.5333C118.252 39.6 109.319 43.7333 106.252 53.4667C103.319 63.3333 112.919 72 122.519 68C124.652 67.0667 126.519 65.7333 126.519 64.9333C126.519 64 125.986 64 124.919 65.0667C122.119 67.8667 116.252 66.9333 113.319 63.2C106.519 54.5333 112.919 40.5333 121.052 46.1333C125.186 49.0667 124.519 51.2 118.519 55.2C115.586 57.0667 113.186 59.0667 113.186 59.3333C113.186 60.2667 122.386 56.4 126.252 53.8667C129.186 52 129.186 52 129.186 59.2C129.186 67.0667 131.319 70.1333 135.852 68.6667C139.186 67.6 139.452 65.6 136.252 65.8667C134.252 66 133.852 64.5333 133.452 56.2667L133.052 46.6667H137.852C141.719 46.6667 142.652 46.2667 142.252 44.2667C141.986 42.6667 140.519 42 137.852 42C133.986 42 133.852 41.7333 133.452 35.6C133.186 31.2 132.519 29.3333 131.052 29.3333C129.586 29.3333 129.186 31.3333 129.186 38Z" fill="black"/>
<path d="M129.506 86.7333C129.506 107.267 130.706 110.733 136.706 107.933C138.572 107.133 140.172 105.267 140.172 104.067C140.039 101.8 140.039 101.8 138.706 103.933C136.039 108.6 134.839 106.2 134.839 96.3333V86.3333H138.839C141.906 86.3333 142.839 85.8 142.839 83.6667C142.839 81.5333 142.172 81.1333 138.839 81.8L134.839 82.6V75.8C134.839 69.9333 134.439 69 132.172 69C129.639 69 129.506 69.9333 129.506 86.7333Z" fill="black"/>
<path d="M22.9191 42.4C15.1857 43.6 15.9857 50.1333 24.3857 56C33.5857 62.2667 36.9191 71.8667 33.7191 82.6667C31.4524 90.2667 26.5191 94.6667 20.3857 94.6667C10.2524 94.6667 6.2524 89.8667 4.38573 75.8667C3.71907 71.3333 2.91907 69.3333 1.4524 69.3333C-1.3476 69.3333 0.119067 82.2667 3.98573 90.2667C13.1857 109.333 38.1191 97.7333 38.6524 74.1333C38.9191 64.9333 36.7857 61.6 27.1857 55.0667C19.4524 50 17.8524 46.1333 22.6524 44.9333C24.5191 44.4 27.0524 45.3333 29.9857 47.6C33.9857 50.5333 34.6524 50.6667 35.3191 48.6667C35.8524 47.4667 35.5857 45.8667 34.9191 45.2C33.1857 43.4667 26.3857 41.8667 22.9191 42.4Z" fill="black"/>
<path d="M92.7857 42.8C87.7191 44.1333 85.0524 46.5333 82.9191 51.7333C79.0524 61.2 86.6524 70.6667 96.5191 68.8C100.652 68 105.852 64 102.786 64C101.986 64 100.919 64.5333 100.519 65.3333C99.0524 67.7333 93.0524 66.6667 89.8524 63.3333C87.4524 61.0667 86.5191 58.6667 86.5191 54.9333C86.5191 45.6 93.0524 41.4667 98.6524 47.4667C102.252 51.3333 102.119 51.3333 93.0524 56.4C90.7857 57.7333 89.1857 59.0667 89.5857 59.4667C90.9191 60.9333 104.519 52.6667 104.919 50.2667C105.452 47.4667 102.119 43.2 98.7857 42.4C97.5857 42 94.7857 42.2667 92.7857 42.8Z" fill="black"/>
<path d="M65.7857 14.8C62.5857 16.6667 59.5191 23.0667 59.5191 28C59.5191 33.6 65.7857 40 71.2524 40C73.3857 40 76.5857 38.8 78.3191 37.2C81.3857 34.6667 81.3857 34.5333 78.5857 35.8667C70.5857 39.7333 64.8524 35.4667 64.8524 25.4667C64.8524 19.0667 65.9191 17.2 70.5857 15.6C72.8524 14.8 78.1857 18.6667 78.1857 21.2C78.1857 21.8667 75.3857 24 72.0524 26C63.6524 30.9333 65.6524 31.7333 75.1191 27.0667C81.6524 23.8667 82.8524 22.8 82.4524 20.1333C82.3191 18.4 81.1191 16.1333 79.7857 15.2C77.1191 13.0667 69.1191 12.8 65.7857 14.8Z" fill="black"/>
<path d="M41.1857 43.3333C41.1857 43.7333 42.7857 47.8667 44.6524 52.4C46.6524 56.9333 49.0524 62.6667 50.1191 65.2L52.1191 69.8667L56.5191 62.6667L61.0524 55.4667L64.1191 62.6667L67.3191 69.8667L72.1191 62C79.8524 48.9333 81.5857 45.2 80.1191 43.7333C78.1191 41.7333 75.8524 43.6 75.8524 47.0667C75.8524 49.8667 70.5191 61.3333 69.1857 61.3333C67.4524 61.3333 64.1191 49.6 64.7857 46.2667C65.4524 42.9333 65.1857 42.5333 63.0524 42.9333C61.1857 43.2 60.5191 44.5333 60.5191 47.3333C60.5191 49.6 59.0524 53.7333 57.3191 56.6667L54.1191 62L49.5857 52.2667C47.0524 46.6667 44.2524 42.6667 43.1857 42.6667C42.1191 42.6667 41.1857 42.9333 41.1857 43.3333Z" fill="black"/>
<path d="M55.1058 83.9333C52.0391 87 53.5058 90.2 59.9058 95C67.2391 100.733 71.2391 107.533 71.1058 114.6C70.8391 127 65.2391 134.333 55.9058 134.333C46.1725 134.333 42.1725 129.667 40.7058 116.467C40.0391 110.467 39.3725 109 37.3725 109C34.9725 109 34.9725 108.867 36.9725 121C38.3058 129 42.5725 135.667 47.7725 137.933C60.9725 143.4 74.8391 131 74.8391 113.533C74.8391 104.467 72.3058 100.467 62.8391 94.3333C55.9058 89.8 54.1725 85.8 58.8391 84.6C60.3058 84.2 63.1058 85.2667 65.6391 87.1333C70.0391 90.3333 72.1725 90.3333 72.1725 87C72.1725 82.8667 58.7058 80.3333 55.1058 83.9333Z" fill="black"/>
<path d="M82.4392 83.8C77.5058 86.7333 76.1725 93.1333 76.1725 114.467C76.1725 133.4 76.0392 134.6 73.5058 135.267C72.0392 135.667 70.8392 136.467 70.8392 137.133C70.8392 139.4 74.9725 138.333 78.1725 135C81.2392 132.067 81.5058 130.733 81.5058 119C81.5058 106.733 81.6392 106.333 84.0392 107.667C88.1725 109.8 91.6392 109.267 96.0392 105.533C102.839 99.9333 102.839 87.2667 96.0392 83.6667C92.9725 81.9333 85.5058 82.0667 82.4392 83.8ZM92.8392 87C95.3725 89.4 96.1725 91.6667 96.1725 96.2C96.1725 102.867 93.6392 106.333 88.8392 106.333C83.7725 106.333 81.5058 103 81.5058 95.2667C81.5058 87.9333 82.3058 85.8 85.5058 84.6C88.8392 83.4 89.5058 83.5333 92.8392 87Z" fill="black"/>
<path d="M109.106 83.8C106.306 85.4 102.839 91.9333 102.839 95.6667C102.839 103.4 110.972 110.2 118.306 108.467C132.572 104.867 130.839 82.2 116.306 82.3333C113.639 82.3333 110.439 83 109.106 83.8ZM118.172 84.4667C120.972 85.6667 124.172 91.9333 124.172 96.6C124.172 105.267 116.439 109.267 110.706 103.533C108.572 101.4 108.172 99.5333 108.439 93.9333C108.839 88.2 109.372 86.8667 112.172 85.4C116.172 83.4 115.506 83.5333 118.172 84.4667Z" fill="black"/>
</svg>
